<mxfile host="app.diagrams.net" modified="2021-01-20T11:08:34.530Z" agent="5.0 (X11; Linux x86_64) AppleWebKit/537.36 (KHTML, like Gecko) Chrome/87.0.4280.141 Safari/537.36" etag="qwhXmW5BXjWBUR2cUAuF" version="14.2.4" type="github">
  <diagram id="GXTRDYChh0-OJMCrsvsC" name="Page-1">
    <mxGraphModel dx="1822" dy="696" grid="1" gridSize="10" guides="1" tooltips="1" connect="1" arrows="1" fold="1" page="0" pageScale="1" pageWidth="827" pageHeight="1169" math="0" shadow="0">
      <root>
        <mxCell id="0" />
        <mxCell id="1" parent="0" />
        <mxCell id="S-3AYEZfy06Mwkrb09BF-2" value="" style="shape=image;verticalLabelPosition=bottom;labelBackgroundColor=#ffffff;verticalAlign=top;aspect=fixed;imageAspect=0;image=data:image/png,iVBORw0KGgoAAAANSUhEUgAAAFAAAABQCAYAAACOEfKtAAAAAXNSR0IArs4c6QAAGlhJREFUeAG9nEvPrVlVhfc5VYoWJUJVUVwSEAukpYlN/QMmdoyJiR1tmRhvwQsELwl3MWIQNRgiCR1N7JiYiC0Tf4AtGnY0kZuGoEBhCVoXBcM5jmeMOdZa+zunSEyoek/td60155hjjjnXevfe33cO3Pr8219293Lrcrnc1cCol0dNbb/EzXL5hF1z8HLdBcdE1/Uo7FzlB838lklwgsEWpo4mlid84WGeXI528lu2FNdx84Wn6+QzpzWw5oqm65yHnSl48k+v0PmgZWEA4LvkxagV0nI5oRYV75nWxBljQLAkOC9cJCOW/zw3ZOPSNKKEm/hwg5GSEYDLc4134WVMmHGsdnp7rPHMmXlqTixzsumyAaU0FC0xJyfcsSfP3cvtINIonHfvJADRXCUeHsXJnqwemwDb3TtJ0NgwRURwIzIO09TOmBfkxZE9+Yorp0fHDH7mweGFQ69pwrU9fudjKhwsrn8Bk9eNG9/iJGT6cNv7oGiEQkJOE1tQSGOM3bHjQ1zXnhAMT5UVNzYanEYLpmk2JxzOL1vi7V46sDrOxYV/1Qk3/tHCNAbPvKluImYDGTPp5kQLYaN/sKCCbZ2JI9wz5dQJBJRXxZN6kSMwaMzrWrs1OzGahkgJ2fmFHr4RiHnnZL5PbnnS3BAkfYozqXLeGw+pMNTisEO3DCcfq52T/HkR5oaJZ9U/uYjZL4CJuU3QetYnkQnBaN0rCbFFWARpDtPVSaQI2BsfPIevl3l7YginoHF6PrEuBuGs/fbgqZZ9H6oWlQEGDniZsLYh4505/ds+DRGmOfGlF64q8au2bLJLMy/xF51AxGMlr4YkrS0CLQiAX46zaWOxhfC0RZizxXvw70Kuc6Zp17Zwhz9Co6sNbszmlF9/iIgeRXXDWsOhpQrBGi/sqqONd1w1CMcf4W93Z7X2NQOI/VJwCEmQwKuGCYu/GHwOXxzX8ck0+RpX7CkUm9fJyyNqvYsAXoN2/iyzXrhqu3VZJ/HgNcURt2pf8df6g1czFeMTGJF0N8Z8Eqfb8CJyHXMw7JCfyeCbBwyk9o0gfJkqxsDh9SLzxDMPJk2ZtXAI9qMVYHAh89y6rSsAF8i6egZ72s8cjrIU35wvTMnt/GgzT3WxmO+B+S6VLAjltHdnQ07wqCCe5hmUNPbMzY+KdeyTypIjz+VGiCs2m5bN/gPjHIGM+OZllCOUM4RzxSjHuAXd+lvb2pBSAVYj7q3fxez6mxgiXf4U9kyPB6polJulZQTIJo/nCqKPIzVYB4cs8fIHHE9dLmNIx3/iDJ48tWfTJucR46m1ViPRJDr0YxKwT8WaYzdWbj9Fe534rT86snbN1C948mPni7STQhLDWh/IXUhPVUjBenfncW5COugYcfRTO/xnjso4bYhgnRH+tba+wR5fLXK6YB8fMZ57SMEmpPgb+n2K0vRVt2MrAg78GOFvjszxPQiEKzmS3MJjlp3o2HPsu2bcROxmTnU55BtA7IbrNgVqdpv58Ictvgdf/8OXh3/so5cHHn1Tg17w8c5XPnX537/92cvdL/zdVa7UHxPqUtPMVNjts0HA2uWO2Pp+cafFrnHqB+TGZDcTi490JMsueqkV9pycfSJk9oXvxW4eiW+/4vsu3/YjH8unvGSjvPp7yv2g+fTLq+bhf5BHzDVig2nfsjAZdCztZJIMXcqSZEAwBk9iLnzbXpscCyubmxpbT95T73upGJrbTItnSZG/TwY2sx8jUegpvmOAo1PGh972NTcxDLLjAuypbp4zwhc7o94DdQHWQjVoPkGaUzh/tk+2+WWDfcaDE2KSwRSejJ6bG0JsBE1bZp4AuwlfF28LiT/iGm8uoNHtzYJ61sCicfLZhw3M8M18GeOS0//ZHDw5At7x4cj3QALsoTCAbrPuNDMCy22Tm4gXXF797ghNTpvsNJULSngWloQ4xq/xFIaHKzyCTnxjWszODwYQPGTZvDvH8AjVt6L4iiVjMbKJrjyWai/YrZX6HkQdh24lcqETgt1E8gpskazDb5+1WnQ5empSSJO7l1qwQWlMcJMipFAcl3uiNbHOjxjnbxFljz+ho5M4vcjH7CrnFEDd6/eJCfa9eVNgeFI/7ujPRum9MxJIJZcW3ckYyBCakAZXo22+SbTjJfdb8vtEZ59bmnWdP67kZL4xV/pp3BRwHT913KxXTMGF03Wq2diu7TunvkhPh0jka5OzbGAbFLGsNIN8BCLUVugmYUasybG4xu+jJW/txi0dOOqjCDYHg/5jkzS6OYN3ftmwOi8QsLYF3+aaq3bwhJ3XYXBO17m5wpP8/h64DD7ac+in8+VNs9bKBbkKmVY+x3DEpzjUD08foTKsnG5Ac0J29/Lkux5ubwsX6ixU+Cb1hs3iZv6Jxpv88GOEKzForRY8mP1og3GSbH7qT4zjR4C+BxIVUPCZmwsDorTwGy8TvRYxcbpMPr6eBC+5zUUMdP3JpKfHhVCFLue3FoB7jd3fwRaXJhMD7mzuyu943VrbfKJjIWcaSpNA5MuI6d1Rg0ZPdKzf4pgXJJonEtIkokgYS6zRjwuyUmQDiWgjE5NEbcLJQ5HEvfYDT19e87v/xcKmYl/1/qcvr3r/M7EPFt/j73v28sr3xu7ssj367mcvj73nORMkPnkfeed/X17xjudGU2zkrMboJoWY+KAUV30Znd52x9FkmZpjnWBbccSXEzgLDbKSIE6vselqsn0SR0i/qw14xTDpy4WYxreIQl7yeHI1V4E1Mk7Bp6nzNKIrRnjDHZLmESM86F3wNngZollL855mB937+8Q5u0qiU9dT1mZZCHknuCP2vWsVPCP4+Z5IfkLBltuaOOF+JhVjbluDcTy32LhnqphtWpoOk6dgTv1uhIx5Dysa/XvuOrt0PIujnsHeW7+/B45AvIrhLcA3rXOIQ5XgNCLvIS1MfoV2XxEKx25w+K7WNM8ghO7LjcaOhrNdB/9C25bVfrwS5ma5HhMZVP2tzTnEwTVDFklOAcvO5ld/a+uG3PrkLzxyFyNXRtG1hpu2pUeNFLgtbnxy4yMQxgzf+YM/cXn5j3/w8sBLH43xBbzfee7fL8/9zVsvX//Hv1SW6GyLts6xu8mp+2W/+T9W9fTvvcRjsR0XF6dFF3aa6kc4uxODSxZm2QT2fGyx9xFIpxbWk/GRJ7letOZR2O2HHrs89KN/MLmpcvRPHT5J6z2Vs9VaiObKzq+aZMnpy4FZdmpTF69+H3j1KEDs7KUMcRT5frldk5OEUHcml9f9/lczPe7/+uvfbc7kmZO6/FnXN3XIW/sCZvdlv+3jMbs0Wh57z7Nu4iPv0if1cX3l/Q+ZctB0xQ2YPd9IA0Sm/9JsYEPOByw9mTsr/a2c1+vmTylh2rw4skvn7uUIT5JdrXVlxxblmvSH+LWj5IkeYZBDHmUee3Gxbyz2vi/t+JXmvhNwyV+e65oa5NxUn8mYD6w1okh6xZkTyJFmpcsORpZueDzZbBmw6drCxya8XXP73NtebhzL132op9FOWTSW3yj4Jv9xqqrFDVv2cBh+2mQoO5RPvfelTkNlvpaTydjiuc99Mk9M8gMryWLlPZDuZkfLizhSYGceDGMLJYaFTTPWpiSym4P4BQq+J35xD9aPyfCVOxzkiMbwAtIas4HkS+CE45FJmfsdddaLx3wNG92O4pZ1clP/5BvySRW7bOt7YIAlJWPIIOwVDn2ZHFK/GeGXYyVyYGJyzHe8eYDP98TsM36JHhvUec+R3SdMbhL7KSmWhLCx5rrZhNj63mW5vH9NTGvd+U3iG745f+bdORTu+L4VRIt+pZ/gJhuW1YaeoJyQrDJHTx4bv7e2mOPtwKbhhzeFpC82c0OHRYPwYoSmkIb3aXXOWcCXCEKZ7at1YcGFZqsnhrmJy77j5JUv9lEDg2Nc8cTTIOp2A0lwErpBIAgdJ6ttD3VJsmOS5xAVrpg3/OFXHH99mzjKFtic3IVPcZqz9HMBVnOw8Xpm1XYcHIGswnG/8r3PMqwr74kDHCv5kx57Lp9AasYx2Zl6ddhtkXEeYdcgEIHZAQL84tFyoNbu0PaDdUEAHXuOzK+vMx4PjXZOxdOo0pBmv7CSJzbi6tu6sHKh//4Xuf3jIzzUpDGbczOG+uzeeaB0ft3QCRdTXfoUjiFLcDlBph0UQ3q4k5UAexoDxgtyXf7lV18xlHcvb/ijez+FExMVo8VJsEPj4iZxBnIv5M4pZFRXY9J++d0PL3z5jujVAMKrn8hJmfyhctY8faVks8OmvxNJ4Uu4np+TcDUFvJJ9xxt/6PL4T3/48u2Pv3Hor4d//pVHRkWE3br6th1sN6krn0QaJ0PnXljboKjMVxrWgjaXZoWA05xl+TI3QZpkXQGVC6+fhEWUw0SAe2KBoMaumR/h4OfoTjAJoVvNJFjXN2se/iQKl8X40xVPr6ViuCeHzKTeWrTQ0fHaYnYcTJg2FssIZKoL39kMe2VrjBts3toaF2Nxqf/MrTkflObyX6wrULb5GXnt2iiI04LyaPXkffqX+ouB2J1eJH70tPjeD9//Q4SvQC5m7t3Z2KStGae48KbJeYeII6cmp47YE07M47+dX8Q6Xrcvv0t/SS8g+c4Tl0YVxXgosZisHSfftd6r32UTu8GhTABJspuxcr9OrDjFtnlOsqFrlhhyjBB7ssbml3L1OyFuatjisSTX8/4+Ech9L+W0nTzVn7kNc2u+6kGz61d9iQeI/gTka4zmdbI70KYJWJuwiASuu8z2OIvQwHX77Fv0IeLF3csTcxpXIxSBq4ycft7LuJwfXxXGuNfw3/h9YvIDLOPl8qV38CGSyzLGx18TPN/1jac+bQo0OH8CDY8c8Vs4o8wa1k8iJQUY8O5ybETw6iW/3t/6QMaXmMaToKeSqPPRwWOcML74VmrbfsOOSzh5PHdhOydFFhOSa33Ydg/2ExLs9Z3mPfPXP5dcSTabdl2Te+HQ2NfXmHbdDSYxJJPdJ0faIjaJa2MFqeM0cZOmsHIlIjjmyeWJXeXKiLC9LezZaU98c87TohPJpz24XuUIE7oS8+Q7eS+k0YhuifgnLzh5QSRo1thND6OwxvAeaOORnJNgmxAa815jtvVBw8oYnxqvhtxpY5gkR02yjx9evU50cLUw5mX7aNqnubjwgN06Jz02XtcClgZKNB8T8e/8m9v1r3jQ1UUMgf1RjtkcFz8U4OzPznipgIQA5hpxMuZHr1hdiALe9JGnYjjuORUUJl69eURDckzCZYMfG7J8OohSwD4puzk+UMbvZK/+naf3QrO+J7rMgwdQ4gO/2XDypX7URA+6o4MGJs76txCsKC8pS9MUPePY2EH94Uq6cd8cOEknp/1jQxTrfctC9nLvSgUaiabQ7Wbhte8R4h3kzVs1wafmAE4TEmYDG4c9pkww5JpfqGoRjtWnJRqXfdn9iQupBJ0nwsbhyffEJHrTR/6jYYIcMVgRZlhO1Ox3TNzlx+Y4oJh8esPdcHTYCaeuL/zWd2VCPCC0+j75WZts4hjkN1QzN20MZ/2nflglhRAEsqyG2HqaltTBBMk96RIfZ3msZriLL8//9/eJi3NS9nti9I1+/8RTPQNM59IZPyXFSonFFP889U98minsxPS0k98/C/u0mYvbdN/oJIhLScLgfkCanfHSJzEzKIIctmUmHA05Lc7kFvNkr8043g7ijKcnHQLnJcRkjDldi8MmbGjO5V5ogTLnZwYXWCDTLKZtEHMuXM4PkhgZiGVx4x8XhRSXYBkQATgRY2OIvWZGEid5Y5NsB9U+IzF2Zl2OlXveM3f6I975FGwBadR14cFeP0XgZXfSjA5HA3z+KwCczYPjrPO0h8bvgQkJId1GiDcEUv1Zuw9fL/nWrsjmOCUjBfFv/ujzfAp79wjmv+Q0ZROaARJI4Sq3iZcW4Mmv8YYW+F77gfwjJuZcvCeacjixEe8KJ4csmFO/ZyOjmqtlRuLXh8gmx0s0u2qrqc5mYVgnreRGWc4IG8PVEIGYuvPU0JPjguSIlux8w5N/rSYGJDnngux5L3wLuXO62OYEIgw86Drw59uBPUM1v9IPObacini9hkiTdSorsGLlc3ECOe/8PvGTP/+YBeN74oP/dHng4Ufv+92wdN/K8RvPPnX54vuesPD9HTU1uTNqjDfLCjtXu6YWT3yAdm1Er5LBze8T/SlMoIk1dm4ySOzDS5N5zbWw1zE9TQkjXv/i9C9+4/KNZ+59pEv1rRxp3lc//nbnpWLrt5hr/ZhSW2tMbafNpy6GVL5qFnbmOoHaAcimitVl1hjNm0YkxQAnyvxy+GfnhkCCY2Kf+cTHL09/4q8ub/6TNPFTv/jo2k2S9HviZ/QbHEQ7XPb+Fid/PZCT8j3zl1Wfeyt/ZYDA5Hn9h/7Twv7tPU+EG1cvN5J4ZMWREzinTrjCwSDcj2+Ns258Ty/I9T2QIP5wTQ7PYXZSRMTie4QEv8zJvkRaiMjSy2vsVY4h2PnJtPHB9qQE3EYEt7HWe3wnhAks3OWhk/nZWXFHUc6vtX2HPdPWn1zlyvdAbEYlkbULke9nae0WnALSnMxXuJbsjtfOAGkT3lAU81UBhHgPuEVhk83y4JCnq57+gJXf4fUigebNmrzf5PeJPl3Wlo1HP0ufSFOFKzadwNA6AreBSSabnN2VNReq1xLlFLGiM1pJdNqao4XLf/X7RLCJaXyidR+e89Eptr5i0WRdkR/OUriR0EWLsQ6stnvzsxm56MSQWk+wt/7+p15Nyuy8ZhEphLAJhuHO2C+X7//TL5nvH37mcY/BJG7xyOO8w4FQ42zcOba45to+yFfMVXyxSWLK0Z/8WCbfcJx2maaujOSwPj5Vm0fxrn+BN1+4kwPM1T8ydxRBLp8O86LdBFxfmNeOaBacMOubPnP9x+PiS2im9Xc+Xqe5yiNO4A23b3TIlvwTvHDVyZiX4yen9TqkuPIr16FzxZ51rVSJRRZ8+RT2VseURqjj+iP6cGm+GjRE+GszpbeSiImBTvPzPdEZBHbxwjseuD7KerkQCNVtN1zzJ/44f8P32V/Op7RPlGLS3OQgF1dtEY5PM3LxR07Pj5EYMMETHx4scOaJ3HawJ898CmPcIMhMY+Y2ylnCa2rhz3HlLU5jlJm7AvcI1WB90qMhNm0Ppwb/4iXZ4JnKnle0uu6FLY740W/faRfJcdGUNK8Ysmd+bccGp6g1eu9ZFGwnxAB4k5/EIdkZbbcvWIcc6whqPCPOvRksT5vzT7x90GriMMjn2jEyHPlaVN8iys/J2z6F+CvOwW0dQvhoJYlzjj359yas/EDlvDqBTbSaOSfIGky4dyepshuNG04NsZeHEmzzpE0c2/gizJpsSXPKf5jE/UL+PpGG5bFV7qv6pXvq2t8T/R4YccWyajGETM1DGqzvcuCjRKOYdOWgemNFjHFSuN+HdsP6XgMLO9voUWAzRtsR63lKypNtAbIv1ZWTsslPd/TfhA9Z8iWauzKSRCMHwFOtiGGBnmgNbn2IlNxv3kZDMsW3IJF87Yufvbzk1U9cfuDP8nUmqBf+/vUnPzNqKGlV4yc2J/0ofFUrnD6Jph+7C8S3JrzCG9UG+42NHGRKrmZ1QjvCkUcYDv1xIkZN9mtCsen94/Mf+zU30ewv0o3mPfnnb5GmaGFkhuq+53leG2MArqPLMx6bnwRzHPWnL/ev/+CMFHXtEz/5GpnnWNJszyFnziW3FlmCqzXzrrFmDp45wGRkyouyu6PJg4PIzVv74sI98Z4OHmamC2eMblTmOWiu6swpC37bDdHNdgiLN3u4sDZP412L8DmssuYIk/v6BFqNeLrrCLfGyeidcDJSO1UmjrHB+PW/tyXeMKv1ojlj5t8nyrzihWM+3whqX1sasmCYo8s2DYBd2/zDcOx69SS6NoekZnzVYii3uVy/Y4NNfn+NmWAaJ3DJyc3V0ckMSOEpBMOOjziidpLGN6FpzbO5g0lM8ssHjXky0/S4io2pWMQ6nqbJ6GbwtUUfLMkPHqLWQCRYgx2ztWALT8TsOFiIBKsf5Uh6WIYcUFAZU1iSAa8Q280xPPbtBFluIdc/MkWE+UaDtaAhSY48YepJvIdX+PAkFp5FIXD1+ysQDj66+cT2XySxDuOKMab20c/StYKloTzCEHmR0Yn5uXDs5fFuOqS4ptrx3eU0wWALs/h5lJqrBQ0qgzBc8TGbDVMq529KY/D3Upxid36Ao0vT6GkTYj9zLCwx4P1lG5yX1rPzy04t/tmZ74GKiDPqqCGfThNtGgV0i+BdHfIivXb4fEgMxnsg+E1+wp0jKV3qTG1POBZerEhZsNYmsNkQe8bmPeCmNWq4uCd8asUDxF75NWl96Ep4vRBkIw2HjOYNwfpJJGmyS0k2CQje9Bbi/78tyaKopIlQOIw1QRTSPIPI2fkIX03BvmyCmzRaMLNeOVkbKz8fLCsWjsQ0HuCZM98MHLywQyaixqsCCEa2OYV2Tjdy5wTnT+EcWTmceYQTMa8Kwp85WIQgD7wXGRGi5bbVfxRnf+It0PGTd9KOYudYOfEtrEio2baO6Gj+sdU/OcPVXBB0fnITNC/Hh/d+9c+/DxT+eO6jLOqaUDxKNYpZzGX/iEscjgpDXJIXnzGi9+koTt7ZAOPg9XsNK6Ghqr9zA2VmfaVPnMBtr2/0y4b9rOY6PvpB2D45d/07cv/TDnLoIiCd3qcNOPb+EJ9kG7ulJKGbJnyyw1p75/NeJCJzgaUcCXVurbC3+Qhn3l46Zmx9emDg6qeqmLWIbefHFi1+CztyFNm8HbH3M2HXD3F4/HciLC2Kia+9AywjmNnu/CmumBQcnKlQOYVexWKT5+p1lTscfqMGFzKMug4NnU9TNo7TOjUodum3LSzY8hot5HCeM4c4zA34pj08+RqDc94gLRC8Xz2F6TYkEXMkVSi283hr6YR+k/eCeE8mfnhiMtYhxxo8IRM28eWJnnDG5vwT7zjruqF/bKg175Fv22ha8lqDO7fxPfHV93/fXm0bjLhKEQAAAABJRU5ErkJggg==;" vertex="1" parent="1">
          <mxGeometry x="60" y="390" width="80" height="80" as="geometry" />
        </mxCell>
        <mxCell id="S-3AYEZfy06Mwkrb09BF-3" value="" style="shape=image;verticalLabelPosition=bottom;labelBackgroundColor=#ffffff;verticalAlign=top;aspect=fixed;imageAspect=0;image=data:image/png,iVBORw0KGgoAAAANSUhEUgAAAFAAAABQCAYAAACOEfKtAAAAAXNSR0IArs4c6QAAGlhJREFUeAG9nEvPrVlVhfc5VYoWJUJVUVwSEAukpYlN/QMmdoyJiR1tmRhvwQsELwl3MWIQNRgiCR1N7JiYiC0Tf4AtGnY0kZuGoEBhCVoXBcM5jmeMOdZa+zunSEyoek/td60155hjjjnXevfe33cO3Pr8219293Lrcrnc1cCol0dNbb/EzXL5hF1z8HLdBcdE1/Uo7FzlB838lklwgsEWpo4mlid84WGeXI528lu2FNdx84Wn6+QzpzWw5oqm65yHnSl48k+v0PmgZWEA4LvkxagV0nI5oRYV75nWxBljQLAkOC9cJCOW/zw3ZOPSNKKEm/hwg5GSEYDLc4134WVMmHGsdnp7rPHMmXlqTixzsumyAaU0FC0xJyfcsSfP3cvtINIonHfvJADRXCUeHsXJnqwemwDb3TtJ0NgwRURwIzIO09TOmBfkxZE9+Yorp0fHDH7mweGFQ69pwrU9fudjKhwsrn8Bk9eNG9/iJGT6cNv7oGiEQkJOE1tQSGOM3bHjQ1zXnhAMT5UVNzYanEYLpmk2JxzOL1vi7V46sDrOxYV/1Qk3/tHCNAbPvKluImYDGTPp5kQLYaN/sKCCbZ2JI9wz5dQJBJRXxZN6kSMwaMzrWrs1OzGahkgJ2fmFHr4RiHnnZL5PbnnS3BAkfYozqXLeGw+pMNTisEO3DCcfq52T/HkR5oaJZ9U/uYjZL4CJuU3QetYnkQnBaN0rCbFFWARpDtPVSaQI2BsfPIevl3l7YginoHF6PrEuBuGs/fbgqZZ9H6oWlQEGDniZsLYh4505/ds+DRGmOfGlF64q8au2bLJLMy/xF51AxGMlr4YkrS0CLQiAX46zaWOxhfC0RZizxXvw70Kuc6Zp17Zwhz9Co6sNbszmlF9/iIgeRXXDWsOhpQrBGi/sqqONd1w1CMcf4W93Z7X2NQOI/VJwCEmQwKuGCYu/GHwOXxzX8ck0+RpX7CkUm9fJyyNqvYsAXoN2/iyzXrhqu3VZJ/HgNcURt2pf8df6g1czFeMTGJF0N8Z8Eqfb8CJyHXMw7JCfyeCbBwyk9o0gfJkqxsDh9SLzxDMPJk2ZtXAI9qMVYHAh89y6rSsAF8i6egZ72s8cjrIU35wvTMnt/GgzT3WxmO+B+S6VLAjltHdnQ07wqCCe5hmUNPbMzY+KdeyTypIjz+VGiCs2m5bN/gPjHIGM+OZllCOUM4RzxSjHuAXd+lvb2pBSAVYj7q3fxez6mxgiXf4U9kyPB6polJulZQTIJo/nCqKPIzVYB4cs8fIHHE9dLmNIx3/iDJ48tWfTJucR46m1ViPRJDr0YxKwT8WaYzdWbj9Fe534rT86snbN1C948mPni7STQhLDWh/IXUhPVUjBenfncW5COugYcfRTO/xnjso4bYhgnRH+tba+wR5fLXK6YB8fMZ57SMEmpPgb+n2K0vRVt2MrAg78GOFvjszxPQiEKzmS3MJjlp3o2HPsu2bcROxmTnU55BtA7IbrNgVqdpv58Ictvgdf/8OXh3/so5cHHn1Tg17w8c5XPnX537/92cvdL/zdVa7UHxPqUtPMVNjts0HA2uWO2Pp+cafFrnHqB+TGZDcTi490JMsueqkV9pycfSJk9oXvxW4eiW+/4vsu3/YjH8unvGSjvPp7yv2g+fTLq+bhf5BHzDVig2nfsjAZdCztZJIMXcqSZEAwBk9iLnzbXpscCyubmxpbT95T73upGJrbTItnSZG/TwY2sx8jUegpvmOAo1PGh972NTcxDLLjAuypbp4zwhc7o94DdQHWQjVoPkGaUzh/tk+2+WWDfcaDE2KSwRSejJ6bG0JsBE1bZp4AuwlfF28LiT/iGm8uoNHtzYJ61sCicfLZhw3M8M18GeOS0//ZHDw5At7x4cj3QALsoTCAbrPuNDMCy22Tm4gXXF797ghNTpvsNJULSngWloQ4xq/xFIaHKzyCTnxjWszODwYQPGTZvDvH8AjVt6L4iiVjMbKJrjyWai/YrZX6HkQdh24lcqETgt1E8gpskazDb5+1WnQ5empSSJO7l1qwQWlMcJMipFAcl3uiNbHOjxjnbxFljz+ho5M4vcjH7CrnFEDd6/eJCfa9eVNgeFI/7ujPRum9MxJIJZcW3ckYyBCakAZXo22+SbTjJfdb8vtEZ59bmnWdP67kZL4xV/pp3BRwHT913KxXTMGF03Wq2diu7TunvkhPh0jka5OzbGAbFLGsNIN8BCLUVugmYUasybG4xu+jJW/txi0dOOqjCDYHg/5jkzS6OYN3ftmwOi8QsLYF3+aaq3bwhJ3XYXBO17m5wpP8/h64DD7ac+in8+VNs9bKBbkKmVY+x3DEpzjUD08foTKsnG5Ac0J29/Lkux5ubwsX6ixU+Cb1hs3iZv6Jxpv88GOEKzForRY8mP1og3GSbH7qT4zjR4C+BxIVUPCZmwsDorTwGy8TvRYxcbpMPr6eBC+5zUUMdP3JpKfHhVCFLue3FoB7jd3fwRaXJhMD7mzuyu943VrbfKJjIWcaSpNA5MuI6d1Rg0ZPdKzf4pgXJJonEtIkokgYS6zRjwuyUmQDiWgjE5NEbcLJQ5HEvfYDT19e87v/xcKmYl/1/qcvr3r/M7EPFt/j73v28sr3xu7ssj367mcvj73nORMkPnkfeed/X17xjudGU2zkrMboJoWY+KAUV30Znd52x9FkmZpjnWBbccSXEzgLDbKSIE6vselqsn0SR0i/qw14xTDpy4WYxreIQl7yeHI1V4E1Mk7Bp6nzNKIrRnjDHZLmESM86F3wNngZollL855mB937+8Q5u0qiU9dT1mZZCHknuCP2vWsVPCP4+Z5IfkLBltuaOOF+JhVjbluDcTy32LhnqphtWpoOk6dgTv1uhIx5Dysa/XvuOrt0PIujnsHeW7+/B45AvIrhLcA3rXOIQ5XgNCLvIS1MfoV2XxEKx25w+K7WNM8ghO7LjcaOhrNdB/9C25bVfrwS5ma5HhMZVP2tzTnEwTVDFklOAcvO5ld/a+uG3PrkLzxyFyNXRtG1hpu2pUeNFLgtbnxy4yMQxgzf+YM/cXn5j3/w8sBLH43xBbzfee7fL8/9zVsvX//Hv1SW6GyLts6xu8mp+2W/+T9W9fTvvcRjsR0XF6dFF3aa6kc4uxODSxZm2QT2fGyx9xFIpxbWk/GRJ7letOZR2O2HHrs89KN/MLmpcvRPHT5J6z2Vs9VaiObKzq+aZMnpy4FZdmpTF69+H3j1KEDs7KUMcRT5frldk5OEUHcml9f9/lczPe7/+uvfbc7kmZO6/FnXN3XIW/sCZvdlv+3jMbs0Wh57z7Nu4iPv0if1cX3l/Q+ZctB0xQ2YPd9IA0Sm/9JsYEPOByw9mTsr/a2c1+vmTylh2rw4skvn7uUIT5JdrXVlxxblmvSH+LWj5IkeYZBDHmUee3Gxbyz2vi/t+JXmvhNwyV+e65oa5NxUn8mYD6w1okh6xZkTyJFmpcsORpZueDzZbBmw6drCxya8XXP73NtebhzL132op9FOWTSW3yj4Jv9xqqrFDVv2cBh+2mQoO5RPvfelTkNlvpaTydjiuc99Mk9M8gMryWLlPZDuZkfLizhSYGceDGMLJYaFTTPWpiSym4P4BQq+J35xD9aPyfCVOxzkiMbwAtIas4HkS+CE45FJmfsdddaLx3wNG92O4pZ1clP/5BvySRW7bOt7YIAlJWPIIOwVDn2ZHFK/GeGXYyVyYGJyzHe8eYDP98TsM36JHhvUec+R3SdMbhL7KSmWhLCx5rrZhNj63mW5vH9NTGvd+U3iG745f+bdORTu+L4VRIt+pZ/gJhuW1YaeoJyQrDJHTx4bv7e2mOPtwKbhhzeFpC82c0OHRYPwYoSmkIb3aXXOWcCXCEKZ7at1YcGFZqsnhrmJy77j5JUv9lEDg2Nc8cTTIOp2A0lwErpBIAgdJ6ttD3VJsmOS5xAVrpg3/OFXHH99mzjKFtic3IVPcZqz9HMBVnOw8Xpm1XYcHIGswnG/8r3PMqwr74kDHCv5kx57Lp9AasYx2Zl6ddhtkXEeYdcgEIHZAQL84tFyoNbu0PaDdUEAHXuOzK+vMx4PjXZOxdOo0pBmv7CSJzbi6tu6sHKh//4Xuf3jIzzUpDGbczOG+uzeeaB0ft3QCRdTXfoUjiFLcDlBph0UQ3q4k5UAexoDxgtyXf7lV18xlHcvb/ijez+FExMVo8VJsEPj4iZxBnIv5M4pZFRXY9J++d0PL3z5jujVAMKrn8hJmfyhctY8faVks8OmvxNJ4Uu4np+TcDUFvJJ9xxt/6PL4T3/48u2Pv3Hor4d//pVHRkWE3br6th1sN6krn0QaJ0PnXljboKjMVxrWgjaXZoWA05xl+TI3QZpkXQGVC6+fhEWUw0SAe2KBoMaumR/h4OfoTjAJoVvNJFjXN2se/iQKl8X40xVPr6ViuCeHzKTeWrTQ0fHaYnYcTJg2FssIZKoL39kMe2VrjBts3toaF2Nxqf/MrTkflObyX6wrULb5GXnt2iiI04LyaPXkffqX+ouB2J1eJH70tPjeD9//Q4SvQC5m7t3Z2KStGae48KbJeYeII6cmp47YE07M47+dX8Q6Xrcvv0t/SS8g+c4Tl0YVxXgosZisHSfftd6r32UTu8GhTABJspuxcr9OrDjFtnlOsqFrlhhyjBB7ssbml3L1OyFuatjisSTX8/4+Ech9L+W0nTzVn7kNc2u+6kGz61d9iQeI/gTka4zmdbI70KYJWJuwiASuu8z2OIvQwHX77Fv0IeLF3csTcxpXIxSBq4ycft7LuJwfXxXGuNfw3/h9YvIDLOPl8qV38CGSyzLGx18TPN/1jac+bQo0OH8CDY8c8Vs4o8wa1k8iJQUY8O5ybETw6iW/3t/6QMaXmMaToKeSqPPRwWOcML74VmrbfsOOSzh5PHdhOydFFhOSa33Ydg/2ExLs9Z3mPfPXP5dcSTabdl2Te+HQ2NfXmHbdDSYxJJPdJ0faIjaJa2MFqeM0cZOmsHIlIjjmyeWJXeXKiLC9LezZaU98c87TohPJpz24XuUIE7oS8+Q7eS+k0YhuifgnLzh5QSRo1thND6OwxvAeaOORnJNgmxAa815jtvVBw8oYnxqvhtxpY5gkR02yjx9evU50cLUw5mX7aNqnubjwgN06Jz02XtcClgZKNB8T8e/8m9v1r3jQ1UUMgf1RjtkcFz8U4OzPznipgIQA5hpxMuZHr1hdiALe9JGnYjjuORUUJl69eURDckzCZYMfG7J8OohSwD4puzk+UMbvZK/+naf3QrO+J7rMgwdQ4gO/2XDypX7URA+6o4MGJs76txCsKC8pS9MUPePY2EH94Uq6cd8cOEknp/1jQxTrfctC9nLvSgUaiabQ7Wbhte8R4h3kzVs1wafmAE4TEmYDG4c9pkww5JpfqGoRjtWnJRqXfdn9iQupBJ0nwsbhyffEJHrTR/6jYYIcMVgRZlhO1Ox3TNzlx+Y4oJh8esPdcHTYCaeuL/zWd2VCPCC0+j75WZts4hjkN1QzN20MZ/2nflglhRAEsqyG2HqaltTBBMk96RIfZ3msZriLL8//9/eJi3NS9nti9I1+/8RTPQNM59IZPyXFSonFFP889U98minsxPS0k98/C/u0mYvbdN/oJIhLScLgfkCanfHSJzEzKIIctmUmHA05Lc7kFvNkr8043g7ijKcnHQLnJcRkjDldi8MmbGjO5V5ogTLnZwYXWCDTLKZtEHMuXM4PkhgZiGVx4x8XhRSXYBkQATgRY2OIvWZGEid5Y5NsB9U+IzF2Zl2OlXveM3f6I975FGwBadR14cFeP0XgZXfSjA5HA3z+KwCczYPjrPO0h8bvgQkJId1GiDcEUv1Zuw9fL/nWrsjmOCUjBfFv/ujzfAp79wjmv+Q0ZROaARJI4Sq3iZcW4Mmv8YYW+F77gfwjJuZcvCeacjixEe8KJ4csmFO/ZyOjmqtlRuLXh8gmx0s0u2qrqc5mYVgnreRGWc4IG8PVEIGYuvPU0JPjguSIlux8w5N/rSYGJDnngux5L3wLuXO62OYEIgw86Drw59uBPUM1v9IPObacini9hkiTdSorsGLlc3ECOe/8PvGTP/+YBeN74oP/dHng4Ufv+92wdN/K8RvPPnX54vuesPD9HTU1uTNqjDfLCjtXu6YWT3yAdm1Er5LBze8T/SlMoIk1dm4ySOzDS5N5zbWw1zE9TQkjXv/i9C9+4/KNZ+59pEv1rRxp3lc//nbnpWLrt5hr/ZhSW2tMbafNpy6GVL5qFnbmOoHaAcimitVl1hjNm0YkxQAnyvxy+GfnhkCCY2Kf+cTHL09/4q8ub/6TNPFTv/jo2k2S9HviZ/QbHEQ7XPb+Fid/PZCT8j3zl1Wfeyt/ZYDA5Hn9h/7Twv7tPU+EG1cvN5J4ZMWREzinTrjCwSDcj2+Ns258Ty/I9T2QIP5wTQ7PYXZSRMTie4QEv8zJvkRaiMjSy2vsVY4h2PnJtPHB9qQE3EYEt7HWe3wnhAks3OWhk/nZWXFHUc6vtX2HPdPWn1zlyvdAbEYlkbULke9nae0WnALSnMxXuJbsjtfOAGkT3lAU81UBhHgPuEVhk83y4JCnq57+gJXf4fUigebNmrzf5PeJPl3Wlo1HP0ufSFOFKzadwNA6AreBSSabnN2VNReq1xLlFLGiM1pJdNqao4XLf/X7RLCJaXyidR+e89Eptr5i0WRdkR/OUriR0EWLsQ6stnvzsxm56MSQWk+wt/7+p15Nyuy8ZhEphLAJhuHO2C+X7//TL5nvH37mcY/BJG7xyOO8w4FQ42zcOba45to+yFfMVXyxSWLK0Z/8WCbfcJx2maaujOSwPj5Vm0fxrn+BN1+4kwPM1T8ydxRBLp8O86LdBFxfmNeOaBacMOubPnP9x+PiS2im9Xc+Xqe5yiNO4A23b3TIlvwTvHDVyZiX4yen9TqkuPIr16FzxZ51rVSJRRZ8+RT2VseURqjj+iP6cGm+GjRE+GszpbeSiImBTvPzPdEZBHbxwjseuD7KerkQCNVtN1zzJ/44f8P32V/Op7RPlGLS3OQgF1dtEY5PM3LxR07Pj5EYMMETHx4scOaJ3HawJ898CmPcIMhMY+Y2ylnCa2rhz3HlLU5jlJm7AvcI1WB90qMhNm0Ppwb/4iXZ4JnKnle0uu6FLY740W/faRfJcdGUNK8Ysmd+bccGp6g1eu9ZFGwnxAB4k5/EIdkZbbcvWIcc6whqPCPOvRksT5vzT7x90GriMMjn2jEyHPlaVN8iys/J2z6F+CvOwW0dQvhoJYlzjj359yas/EDlvDqBTbSaOSfIGky4dyepshuNG04NsZeHEmzzpE0c2/gizJpsSXPKf5jE/UL+PpGG5bFV7qv6pXvq2t8T/R4YccWyajGETM1DGqzvcuCjRKOYdOWgemNFjHFSuN+HdsP6XgMLO9voUWAzRtsR63lKypNtAbIv1ZWTsslPd/TfhA9Z8iWauzKSRCMHwFOtiGGBnmgNbn2IlNxv3kZDMsW3IJF87Yufvbzk1U9cfuDP8nUmqBf+/vUnPzNqKGlV4yc2J/0ofFUrnD6Jph+7C8S3JrzCG9UG+42NHGRKrmZ1QjvCkUcYDv1xIkZN9mtCsen94/Mf+zU30ewv0o3mPfnnb5GmaGFkhuq+53leG2MArqPLMx6bnwRzHPWnL/ev/+CMFHXtEz/5GpnnWNJszyFnziW3FlmCqzXzrrFmDp45wGRkyouyu6PJg4PIzVv74sI98Z4OHmamC2eMblTmOWiu6swpC37bDdHNdgiLN3u4sDZP412L8DmssuYIk/v6BFqNeLrrCLfGyeidcDJSO1UmjrHB+PW/tyXeMKv1ojlj5t8nyrzihWM+3whqX1sasmCYo8s2DYBd2/zDcOx69SS6NoekZnzVYii3uVy/Y4NNfn+NmWAaJ3DJyc3V0ckMSOEpBMOOjziidpLGN6FpzbO5g0lM8ssHjXky0/S4io2pWMQ6nqbJ6GbwtUUfLMkPHqLWQCRYgx2ztWALT8TsOFiIBKsf5Uh6WIYcUFAZU1iSAa8Q280xPPbtBFluIdc/MkWE+UaDtaAhSY48YepJvIdX+PAkFp5FIXD1+ysQDj66+cT2XySxDuOKMab20c/StYKloTzCEHmR0Yn5uXDs5fFuOqS4ptrx3eU0wWALs/h5lJqrBQ0qgzBc8TGbDVMq529KY/D3Upxid36Ao0vT6GkTYj9zLCwx4P1lG5yX1rPzy04t/tmZ74GKiDPqqCGfThNtGgV0i+BdHfIivXb4fEgMxnsg+E1+wp0jKV3qTG1POBZerEhZsNYmsNkQe8bmPeCmNWq4uCd8asUDxF75NWl96Ep4vRBkIw2HjOYNwfpJJGmyS0k2CQje9Bbi/78tyaKopIlQOIw1QRTSPIPI2fkIX03BvmyCmzRaMLNeOVkbKz8fLCsWjsQ0HuCZM98MHLywQyaixqsCCEa2OYV2Tjdy5wTnT+EcWTmceYQTMa8Kwp85WIQgD7wXGRGi5bbVfxRnf+It0PGTd9KOYudYOfEtrEio2baO6Gj+sdU/OcPVXBB0fnITNC/Hh/d+9c+/DxT+eO6jLOqaUDxKNYpZzGX/iEscjgpDXJIXnzGi9+koTt7ZAOPg9XsNK6Ghqr9zA2VmfaVPnMBtr2/0y4b9rOY6PvpB2D45d/07cv/TDnLoIiCd3qcNOPb+EJ9kG7ulJKGbJnyyw1p75/NeJCJzgaUcCXVurbC3+Qhn3l46Zmx9emDg6qeqmLWIbefHFi1+CztyFNm8HbH3M2HXD3F4/HciLC2Kia+9AywjmNnu/CmumBQcnKlQOYVexWKT5+p1lTscfqMGFzKMug4NnU9TNo7TOjUodum3LSzY8hot5HCeM4c4zA34pj08+RqDc94gLRC8Xz2F6TYkEXMkVSi283hr6YR+k/eCeE8mfnhiMtYhxxo8IRM28eWJnnDG5vwT7zjruqF/bKg175Fv22ha8lqDO7fxPfHV93/fXm0bjLhKEQAAAABJRU5ErkJggg==;" vertex="1" parent="1">
          <mxGeometry x="60" y="480" width="80" height="80" as="geometry" />
        </mxCell>
        <mxCell id="S-3AYEZfy06Mwkrb09BF-4" value="" style="shape=image;verticalLabelPosition=bottom;labelBackgroundColor=#ffffff;verticalAlign=top;aspect=fixed;imageAspect=0;image=data:image/png,iVBORw0KGgoAAAANSUhEUgAAAFAAAABQCAYAAACOEfKtAAAAAXNSR0IArs4c6QAAGlhJREFUeAG9nEvPrVlVhfc5VYoWJUJVUVwSEAukpYlN/QMmdoyJiR1tmRhvwQsELwl3MWIQNRgiCR1N7JiYiC0Tf4AtGnY0kZuGoEBhCVoXBcM5jmeMOdZa+zunSEyoek/td60155hjjjnXevfe33cO3Pr8219293Lrcrnc1cCol0dNbb/EzXL5hF1z8HLdBcdE1/Uo7FzlB838lklwgsEWpo4mlid84WGeXI528lu2FNdx84Wn6+QzpzWw5oqm65yHnSl48k+v0PmgZWEA4LvkxagV0nI5oRYV75nWxBljQLAkOC9cJCOW/zw3ZOPSNKKEm/hwg5GSEYDLc4134WVMmHGsdnp7rPHMmXlqTixzsumyAaU0FC0xJyfcsSfP3cvtINIonHfvJADRXCUeHsXJnqwemwDb3TtJ0NgwRURwIzIO09TOmBfkxZE9+Yorp0fHDH7mweGFQ69pwrU9fudjKhwsrn8Bk9eNG9/iJGT6cNv7oGiEQkJOE1tQSGOM3bHjQ1zXnhAMT5UVNzYanEYLpmk2JxzOL1vi7V46sDrOxYV/1Qk3/tHCNAbPvKluImYDGTPp5kQLYaN/sKCCbZ2JI9wz5dQJBJRXxZN6kSMwaMzrWrs1OzGahkgJ2fmFHr4RiHnnZL5PbnnS3BAkfYozqXLeGw+pMNTisEO3DCcfq52T/HkR5oaJZ9U/uYjZL4CJuU3QetYnkQnBaN0rCbFFWARpDtPVSaQI2BsfPIevl3l7YginoHF6PrEuBuGs/fbgqZZ9H6oWlQEGDniZsLYh4505/ds+DRGmOfGlF64q8au2bLJLMy/xF51AxGMlr4YkrS0CLQiAX46zaWOxhfC0RZizxXvw70Kuc6Zp17Zwhz9Co6sNbszmlF9/iIgeRXXDWsOhpQrBGi/sqqONd1w1CMcf4W93Z7X2NQOI/VJwCEmQwKuGCYu/GHwOXxzX8ck0+RpX7CkUm9fJyyNqvYsAXoN2/iyzXrhqu3VZJ/HgNcURt2pf8df6g1czFeMTGJF0N8Z8Eqfb8CJyHXMw7JCfyeCbBwyk9o0gfJkqxsDh9SLzxDMPJk2ZtXAI9qMVYHAh89y6rSsAF8i6egZ72s8cjrIU35wvTMnt/GgzT3WxmO+B+S6VLAjltHdnQ07wqCCe5hmUNPbMzY+KdeyTypIjz+VGiCs2m5bN/gPjHIGM+OZllCOUM4RzxSjHuAXd+lvb2pBSAVYj7q3fxez6mxgiXf4U9kyPB6polJulZQTIJo/nCqKPIzVYB4cs8fIHHE9dLmNIx3/iDJ48tWfTJucR46m1ViPRJDr0YxKwT8WaYzdWbj9Fe534rT86snbN1C948mPni7STQhLDWh/IXUhPVUjBenfncW5COugYcfRTO/xnjso4bYhgnRH+tba+wR5fLXK6YB8fMZ57SMEmpPgb+n2K0vRVt2MrAg78GOFvjszxPQiEKzmS3MJjlp3o2HPsu2bcROxmTnU55BtA7IbrNgVqdpv58Ictvgdf/8OXh3/so5cHHn1Tg17w8c5XPnX537/92cvdL/zdVa7UHxPqUtPMVNjts0HA2uWO2Pp+cafFrnHqB+TGZDcTi490JMsueqkV9pycfSJk9oXvxW4eiW+/4vsu3/YjH8unvGSjvPp7yv2g+fTLq+bhf5BHzDVig2nfsjAZdCztZJIMXcqSZEAwBk9iLnzbXpscCyubmxpbT95T73upGJrbTItnSZG/TwY2sx8jUegpvmOAo1PGh972NTcxDLLjAuypbp4zwhc7o94DdQHWQjVoPkGaUzh/tk+2+WWDfcaDE2KSwRSejJ6bG0JsBE1bZp4AuwlfF28LiT/iGm8uoNHtzYJ61sCicfLZhw3M8M18GeOS0//ZHDw5At7x4cj3QALsoTCAbrPuNDMCy22Tm4gXXF797ghNTpvsNJULSngWloQ4xq/xFIaHKzyCTnxjWszODwYQPGTZvDvH8AjVt6L4iiVjMbKJrjyWai/YrZX6HkQdh24lcqETgt1E8gpskazDb5+1WnQ5empSSJO7l1qwQWlMcJMipFAcl3uiNbHOjxjnbxFljz+ho5M4vcjH7CrnFEDd6/eJCfa9eVNgeFI/7ujPRum9MxJIJZcW3ckYyBCakAZXo22+SbTjJfdb8vtEZ59bmnWdP67kZL4xV/pp3BRwHT913KxXTMGF03Wq2diu7TunvkhPh0jka5OzbGAbFLGsNIN8BCLUVugmYUasybG4xu+jJW/txi0dOOqjCDYHg/5jkzS6OYN3ftmwOi8QsLYF3+aaq3bwhJ3XYXBO17m5wpP8/h64DD7ac+in8+VNs9bKBbkKmVY+x3DEpzjUD08foTKsnG5Ac0J29/Lkux5ubwsX6ixU+Cb1hs3iZv6Jxpv88GOEKzForRY8mP1og3GSbH7qT4zjR4C+BxIVUPCZmwsDorTwGy8TvRYxcbpMPr6eBC+5zUUMdP3JpKfHhVCFLue3FoB7jd3fwRaXJhMD7mzuyu943VrbfKJjIWcaSpNA5MuI6d1Rg0ZPdKzf4pgXJJonEtIkokgYS6zRjwuyUmQDiWgjE5NEbcLJQ5HEvfYDT19e87v/xcKmYl/1/qcvr3r/M7EPFt/j73v28sr3xu7ssj367mcvj73nORMkPnkfeed/X17xjudGU2zkrMboJoWY+KAUV30Znd52x9FkmZpjnWBbccSXEzgLDbKSIE6vselqsn0SR0i/qw14xTDpy4WYxreIQl7yeHI1V4E1Mk7Bp6nzNKIrRnjDHZLmESM86F3wNngZollL855mB937+8Q5u0qiU9dT1mZZCHknuCP2vWsVPCP4+Z5IfkLBltuaOOF+JhVjbluDcTy32LhnqphtWpoOk6dgTv1uhIx5Dysa/XvuOrt0PIujnsHeW7+/B45AvIrhLcA3rXOIQ5XgNCLvIS1MfoV2XxEKx25w+K7WNM8ghO7LjcaOhrNdB/9C25bVfrwS5ma5HhMZVP2tzTnEwTVDFklOAcvO5ld/a+uG3PrkLzxyFyNXRtG1hpu2pUeNFLgtbnxy4yMQxgzf+YM/cXn5j3/w8sBLH43xBbzfee7fL8/9zVsvX//Hv1SW6GyLts6xu8mp+2W/+T9W9fTvvcRjsR0XF6dFF3aa6kc4uxODSxZm2QT2fGyx9xFIpxbWk/GRJ7letOZR2O2HHrs89KN/MLmpcvRPHT5J6z2Vs9VaiObKzq+aZMnpy4FZdmpTF69+H3j1KEDs7KUMcRT5frldk5OEUHcml9f9/lczPe7/+uvfbc7kmZO6/FnXN3XIW/sCZvdlv+3jMbs0Wh57z7Nu4iPv0if1cX3l/Q+ZctB0xQ2YPd9IA0Sm/9JsYEPOByw9mTsr/a2c1+vmTylh2rw4skvn7uUIT5JdrXVlxxblmvSH+LWj5IkeYZBDHmUee3Gxbyz2vi/t+JXmvhNwyV+e65oa5NxUn8mYD6w1okh6xZkTyJFmpcsORpZueDzZbBmw6drCxya8XXP73NtebhzL132op9FOWTSW3yj4Jv9xqqrFDVv2cBh+2mQoO5RPvfelTkNlvpaTydjiuc99Mk9M8gMryWLlPZDuZkfLizhSYGceDGMLJYaFTTPWpiSym4P4BQq+J35xD9aPyfCVOxzkiMbwAtIas4HkS+CE45FJmfsdddaLx3wNG92O4pZ1clP/5BvySRW7bOt7YIAlJWPIIOwVDn2ZHFK/GeGXYyVyYGJyzHe8eYDP98TsM36JHhvUec+R3SdMbhL7KSmWhLCx5rrZhNj63mW5vH9NTGvd+U3iG745f+bdORTu+L4VRIt+pZ/gJhuW1YaeoJyQrDJHTx4bv7e2mOPtwKbhhzeFpC82c0OHRYPwYoSmkIb3aXXOWcCXCEKZ7at1YcGFZqsnhrmJy77j5JUv9lEDg2Nc8cTTIOp2A0lwErpBIAgdJ6ttD3VJsmOS5xAVrpg3/OFXHH99mzjKFtic3IVPcZqz9HMBVnOw8Xpm1XYcHIGswnG/8r3PMqwr74kDHCv5kx57Lp9AasYx2Zl6ddhtkXEeYdcgEIHZAQL84tFyoNbu0PaDdUEAHXuOzK+vMx4PjXZOxdOo0pBmv7CSJzbi6tu6sHKh//4Xuf3jIzzUpDGbczOG+uzeeaB0ft3QCRdTXfoUjiFLcDlBph0UQ3q4k5UAexoDxgtyXf7lV18xlHcvb/ijez+FExMVo8VJsEPj4iZxBnIv5M4pZFRXY9J++d0PL3z5jujVAMKrn8hJmfyhctY8faVks8OmvxNJ4Uu4np+TcDUFvJJ9xxt/6PL4T3/48u2Pv3Hor4d//pVHRkWE3br6th1sN6krn0QaJ0PnXljboKjMVxrWgjaXZoWA05xl+TI3QZpkXQGVC6+fhEWUw0SAe2KBoMaumR/h4OfoTjAJoVvNJFjXN2se/iQKl8X40xVPr6ViuCeHzKTeWrTQ0fHaYnYcTJg2FssIZKoL39kMe2VrjBts3toaF2Nxqf/MrTkflObyX6wrULb5GXnt2iiI04LyaPXkffqX+ouB2J1eJH70tPjeD9//Q4SvQC5m7t3Z2KStGae48KbJeYeII6cmp47YE07M47+dX8Q6Xrcvv0t/SS8g+c4Tl0YVxXgosZisHSfftd6r32UTu8GhTABJspuxcr9OrDjFtnlOsqFrlhhyjBB7ssbml3L1OyFuatjisSTX8/4+Ech9L+W0nTzVn7kNc2u+6kGz61d9iQeI/gTka4zmdbI70KYJWJuwiASuu8z2OIvQwHX77Fv0IeLF3csTcxpXIxSBq4ycft7LuJwfXxXGuNfw3/h9YvIDLOPl8qV38CGSyzLGx18TPN/1jac+bQo0OH8CDY8c8Vs4o8wa1k8iJQUY8O5ybETw6iW/3t/6QMaXmMaToKeSqPPRwWOcML74VmrbfsOOSzh5PHdhOydFFhOSa33Ydg/2ExLs9Z3mPfPXP5dcSTabdl2Te+HQ2NfXmHbdDSYxJJPdJ0faIjaJa2MFqeM0cZOmsHIlIjjmyeWJXeXKiLC9LezZaU98c87TohPJpz24XuUIE7oS8+Q7eS+k0YhuifgnLzh5QSRo1thND6OwxvAeaOORnJNgmxAa815jtvVBw8oYnxqvhtxpY5gkR02yjx9evU50cLUw5mX7aNqnubjwgN06Jz02XtcClgZKNB8T8e/8m9v1r3jQ1UUMgf1RjtkcFz8U4OzPznipgIQA5hpxMuZHr1hdiALe9JGnYjjuORUUJl69eURDckzCZYMfG7J8OohSwD4puzk+UMbvZK/+naf3QrO+J7rMgwdQ4gO/2XDypX7URA+6o4MGJs76txCsKC8pS9MUPePY2EH94Uq6cd8cOEknp/1jQxTrfctC9nLvSgUaiabQ7Wbhte8R4h3kzVs1wafmAE4TEmYDG4c9pkww5JpfqGoRjtWnJRqXfdn9iQupBJ0nwsbhyffEJHrTR/6jYYIcMVgRZlhO1Ox3TNzlx+Y4oJh8esPdcHTYCaeuL/zWd2VCPCC0+j75WZts4hjkN1QzN20MZ/2nflglhRAEsqyG2HqaltTBBMk96RIfZ3msZriLL8//9/eJi3NS9nti9I1+/8RTPQNM59IZPyXFSonFFP889U98minsxPS0k98/C/u0mYvbdN/oJIhLScLgfkCanfHSJzEzKIIctmUmHA05Lc7kFvNkr8043g7ijKcnHQLnJcRkjDldi8MmbGjO5V5ogTLnZwYXWCDTLKZtEHMuXM4PkhgZiGVx4x8XhRSXYBkQATgRY2OIvWZGEid5Y5NsB9U+IzF2Zl2OlXveM3f6I975FGwBadR14cFeP0XgZXfSjA5HA3z+KwCczYPjrPO0h8bvgQkJId1GiDcEUv1Zuw9fL/nWrsjmOCUjBfFv/ujzfAp79wjmv+Q0ZROaARJI4Sq3iZcW4Mmv8YYW+F77gfwjJuZcvCeacjixEe8KJ4csmFO/ZyOjmqtlRuLXh8gmx0s0u2qrqc5mYVgnreRGWc4IG8PVEIGYuvPU0JPjguSIlux8w5N/rSYGJDnngux5L3wLuXO62OYEIgw86Drw59uBPUM1v9IPObacini9hkiTdSorsGLlc3ECOe/8PvGTP/+YBeN74oP/dHng4Ufv+92wdN/K8RvPPnX54vuesPD9HTU1uTNqjDfLCjtXu6YWT3yAdm1Er5LBze8T/SlMoIk1dm4ySOzDS5N5zbWw1zE9TQkjXv/i9C9+4/KNZ+59pEv1rRxp3lc//nbnpWLrt5hr/ZhSW2tMbafNpy6GVL5qFnbmOoHaAcimitVl1hjNm0YkxQAnyvxy+GfnhkCCY2Kf+cTHL09/4q8ub/6TNPFTv/jo2k2S9HviZ/QbHEQ7XPb+Fid/PZCT8j3zl1Wfeyt/ZYDA5Hn9h/7Twv7tPU+EG1cvN5J4ZMWREzinTrjCwSDcj2+Ns258Ty/I9T2QIP5wTQ7PYXZSRMTie4QEv8zJvkRaiMjSy2vsVY4h2PnJtPHB9qQE3EYEt7HWe3wnhAks3OWhk/nZWXFHUc6vtX2HPdPWn1zlyvdAbEYlkbULke9nae0WnALSnMxXuJbsjtfOAGkT3lAU81UBhHgPuEVhk83y4JCnq57+gJXf4fUigebNmrzf5PeJPl3Wlo1HP0ufSFOFKzadwNA6AreBSSabnN2VNReq1xLlFLGiM1pJdNqao4XLf/X7RLCJaXyidR+e89Eptr5i0WRdkR/OUriR0EWLsQ6stnvzsxm56MSQWk+wt/7+p15Nyuy8ZhEphLAJhuHO2C+X7//TL5nvH37mcY/BJG7xyOO8w4FQ42zcOba45to+yFfMVXyxSWLK0Z/8WCbfcJx2maaujOSwPj5Vm0fxrn+BN1+4kwPM1T8ydxRBLp8O86LdBFxfmNeOaBacMOubPnP9x+PiS2im9Xc+Xqe5yiNO4A23b3TIlvwTvHDVyZiX4yen9TqkuPIr16FzxZ51rVSJRRZ8+RT2VseURqjj+iP6cGm+GjRE+GszpbeSiImBTvPzPdEZBHbxwjseuD7KerkQCNVtN1zzJ/44f8P32V/Op7RPlGLS3OQgF1dtEY5PM3LxR07Pj5EYMMETHx4scOaJ3HawJ898CmPcIMhMY+Y2ylnCa2rhz3HlLU5jlJm7AvcI1WB90qMhNm0Ppwb/4iXZ4JnKnle0uu6FLY740W/faRfJcdGUNK8Ysmd+bccGp6g1eu9ZFGwnxAB4k5/EIdkZbbcvWIcc6whqPCPOvRksT5vzT7x90GriMMjn2jEyHPlaVN8iys/J2z6F+CvOwW0dQvhoJYlzjj359yas/EDlvDqBTbSaOSfIGky4dyepshuNG04NsZeHEmzzpE0c2/gizJpsSXPKf5jE/UL+PpGG5bFV7qv6pXvq2t8T/R4YccWyajGETM1DGqzvcuCjRKOYdOWgemNFjHFSuN+HdsP6XgMLO9voUWAzRtsR63lKypNtAbIv1ZWTsslPd/TfhA9Z8iWauzKSRCMHwFOtiGGBnmgNbn2IlNxv3kZDMsW3IJF87Yufvbzk1U9cfuDP8nUmqBf+/vUnPzNqKGlV4yc2J/0ofFUrnD6Jph+7C8S3JrzCG9UG+42NHGRKrmZ1QjvCkUcYDv1xIkZN9mtCsen94/Mf+zU30ewv0o3mPfnnb5GmaGFkhuq+53leG2MArqPLMx6bnwRzHPWnL/ev/+CMFHXtEz/5GpnnWNJszyFnziW3FlmCqzXzrrFmDp45wGRkyouyu6PJg4PIzVv74sI98Z4OHmamC2eMblTmOWiu6swpC37bDdHNdgiLN3u4sDZP412L8DmssuYIk/v6BFqNeLrrCLfGyeidcDJSO1UmjrHB+PW/tyXeMKv1ojlj5t8nyrzihWM+3whqX1sasmCYo8s2DYBd2/zDcOx69SS6NoekZnzVYii3uVy/Y4NNfn+NmWAaJ3DJyc3V0ckMSOEpBMOOjziidpLGN6FpzbO5g0lM8ssHjXky0/S4io2pWMQ6nqbJ6GbwtUUfLMkPHqLWQCRYgx2ztWALT8TsOFiIBKsf5Uh6WIYcUFAZU1iSAa8Q280xPPbtBFluIdc/MkWE+UaDtaAhSY48YepJvIdX+PAkFp5FIXD1+ysQDj66+cT2XySxDuOKMab20c/StYKloTzCEHmR0Yn5uXDs5fFuOqS4ptrx3eU0wWALs/h5lJqrBQ0qgzBc8TGbDVMq529KY/D3Upxid36Ao0vT6GkTYj9zLCwx4P1lG5yX1rPzy04t/tmZ74GKiDPqqCGfThNtGgV0i+BdHfIivXb4fEgMxnsg+E1+wp0jKV3qTG1POBZerEhZsNYmsNkQe8bmPeCmNWq4uCd8asUDxF75NWl96Ep4vRBkIw2HjOYNwfpJJGmyS0k2CQje9Bbi/78tyaKopIlQOIw1QRTSPIPI2fkIX03BvmyCmzRaMLNeOVkbKz8fLCsWjsQ0HuCZM98MHLywQyaixqsCCEa2OYV2Tjdy5wTnT+EcWTmceYQTMa8Kwp85WIQgD7wXGRGi5bbVfxRnf+It0PGTd9KOYudYOfEtrEio2baO6Gj+sdU/OcPVXBB0fnITNC/Hh/d+9c+/DxT+eO6jLOqaUDxKNYpZzGX/iEscjgpDXJIXnzGi9+koTt7ZAOPg9XsNK6Ghqr9zA2VmfaVPnMBtr2/0y4b9rOY6PvpB2D45d/07cv/TDnLoIiCd3qcNOPb+EJ9kG7ulJKGbJnyyw1p75/NeJCJzgaUcCXVurbC3+Qhn3l46Zmx9emDg6qeqmLWIbefHFi1+CztyFNm8HbH3M2HXD3F4/HciLC2Kia+9AywjmNnu/CmumBQcnKlQOYVexWKT5+p1lTscfqMGFzKMug4NnU9TNo7TOjUodum3LSzY8hot5HCeM4c4zA34pj08+RqDc94gLRC8Xz2F6TYkEXMkVSi283hr6YR+k/eCeE8mfnhiMtYhxxo8IRM28eWJnnDG5vwT7zjruqF/bKg175Fv22ha8lqDO7fxPfHV93/fXm0bjLhKEQAAAABJRU5ErkJggg==;" vertex="1" parent="1">
          <mxGeometry x="60" y="300" width="80" height="80" as="geometry" />
        </mxCell>
        <mxCell id="S-3AYEZfy06Mwkrb09BF-5" value="&lt;b&gt;&lt;font style=&quot;font-size: 15px&quot;&gt;EC2 DOCKER SWARM&lt;/font&gt;&lt;/b&gt;" style="rounded=0;whiteSpace=wrap;html=1;opacity=0;" vertex="1" parent="1">
          <mxGeometry x="-70" y="400" width="120" height="60" as="geometry" />
        </mxCell>
        <mxCell id="S-3AYEZfy06Mwkrb09BF-6" value="" style="shape=image;verticalLabelPosition=bottom;labelBackgroundColor=#ffffff;verticalAlign=top;aspect=fixed;imageAspect=0;image=data:image/png,iVBORw0KGgoAAAANSUhEUgAAAFAAAABQCAYAAACOEfKtAAAAAXNSR0IArs4c6QAAIYVJREFUeAG1XAmQXVWZ/rs7naQ7vSQQEiEQgiyBYQmGTRFlsQyKIlMzig6M5QqjMy5laWnNYFGoM85mDWVZ47iNluOC48YwLogiw+ICBAg7AhK2hCWQrdPpdHeS7vmW8597XxMdy3LOy3vnnH/5/u//73n33nfv7XR96My7p7vCrauLo65wj5HmksiAc1pM04pjzdO7ZV/k6Nw4gFP6dIyhIup01XvOQI5mPwLRn1KCdXV1a2QZtY0+ZbWXpfX0ZpOu8LSkpS/yxr9YUE4OlWtXzCLzLIh6zKaZTQkqV/g4ycaWKG2zTJb29pcnPpxwNxJmo44khMQwRd+EYzGloLI2+Uju4s20yWTpMFNHWeOfY1nyQ63tDwDVJHVwduEgmMm/O4Oxz3d1LAPJOyGBZLDqz5JMTwmDbqRQy1BsZ0htAx+1YjM1hUEuEyq0wc3Nhvw0Mj9rfPCnLzmknpaGatjIhwpiqFDoWzGmavFalqU26aaeCJB3N2aS2KY4qHAYs3nsZDWGjKuZjXP1+mzmkqUOPcmxTU01hW7bcKxvCOwcoymceLawYFDrbFR6u9HMfJuYtK88OaapgqGng5p7x7a47SPe3OzaULBF/rNgZmAuU7zowOVMbOqyUcfG0BwZ2DIp8JFfk/w6ZHDqU5aQqUuftJnCCsr9G/MSD9IooRpG5J16D8zLMsezY+bUzsc1Yy7e/zK+gpX8Oa25SgX0EpzyHM8yiQICGxLO5AjCZGgjMOpxyPEYcurxObMI8octDarOxnRQ6/YWUizZ0Lhln36NzgDFncDCITdisSc2pZ38ydAyYmlCU7s7fjf2zwKwYqY/dVS33BHT+3R/FlQ6pnPTN/sUxyAd8mjbFkLpT542rn0WrjiL0EybxMwiiLAw5SWWKgbjS152KXvkX3zKPlH1EqeKYG4zuCYnZshW94m0M6QGjj8dWIEkIfiixrhO6VImCM4tSED2aaJ5AkMquYgiDiZpyYBaTdj/cVO25XJKdgmcczKAjJDugUMHTtDa/CVJOdM1AcEn7+QhZ/kTD634GTXjkUTGcVz7y4EfUVYgRrAzBleWt6wswJxOxiEg2wwbC62Bbd1qtEz/Mk5T7uu04prtahXzZrzSZFPmLXGHTdqSI+0Z301gss3c0pYHAoVO08LDfJm/FR38UwYt+dNmFgNKzqCIov0EmDgJV5+fmRSJyJQ2coSyyghBDDlIyyFbxSsAilPJk0KZ0J/2nKde+J5oFReu1UAqfpi/w2MuIowOS/hQbn8cqDSrCHUgXvDLfOUM2zo3uYLDFWhesuOQhplMOqknaQHRxvFS7yD+lD8NGKiAp31bJi0UjkVsN6yfSlY64CQf177xMa/0LP7EZEC07E2YslKIEq5ZqcnUPulXYITDqK3tUfH1FU6gdGRAjxkpxwRvkmtCWk7E/OozMP3VS27GlPnrnZiWd8rSlyAKb6yCkxyzh1j6jr5yNkDaste75SM/fp1bMtvAVq+CTzry91eXYzacSM8IQiBqtIJa5ChTm2FPIP6r+03rq7UCySBFxd6RUyhC5etRZQD2voYS4j63tZPsjGxbnfRiaO+0SC/ytiz7tMxIjdwaWeMj5TgKc2lyf6YFXhSunmTQKS8Fgg1t00dFgzZtSJS6jA5UnkdSQCwo5d87N2L5SQOx7Mi5sfig2bHgeb3RO6crunu6YnTT7tj67K5Yd99EPHzHeDx276TQiMuXz0vxE6rwoBJDfuINC9hp7CmkZW8nf9q2+YuVZORGIPsXDCIRvMoxxMs8Cs57T79lOk9EbcvIMKMfXm6ce9zuq1YnlQ5KveTqMfI/Ye2zdHac9oa94/AXzYtZveldQvyGbsuGXXHrD0fjtqtGYxdqWeML2LEoK/lLL2nyEG7DP0/gmWAy0EbmxuELcjb3xUY5UD5TD8l7T1+NsyVa4I0adHc3ZOQgMO4qvXo6QGogujMA+2JLTAti9pzueMXb94njXzEsfP7of/SeHXH/TWPx1NrJeHbdztg5geD4N7T3rNhrv9446Oi+OOykvthr317BbHl6V1z1+S2xds14jWV4si+Jwb8L/InDfAqjYt/w14Khicz0SXM18SeO5sTlGB+S2cg5FnsW0FDcArjG1nZMChYK1bRMRmPoDFsCYdYUsysWLO6NN16yJBYtnRO7dk7FLVeOxA3f3hSjm/mbl77pnf7upcG2OOS4vjj1vPnxPHzV2X753ZG49qsj9iUv/cuNztgUNXL6tPnIQYvhD3Q98T2n3awCZuAMVgOXynfKucpIrJDVmJOOcsTCJbPjbf+wNIYX9sZTj0zEt/7xydjw2KQSoq+8PVDSHTEoSZueiBeePRyn/flw9Mzqivt+MRZXXLoJZ7OtmBzKBwNwxlBzRSGvEsfzwp9mGb/awLG0qktc2vMtHwXAUVg7XcREUI79CyEh7KHdd7Gzhgxt3/h7B57zuQPd8eaPHaDirXtgR3zu/Y+qePan8wx/CNqnSYpZjKd3R9x4xUh846MbYsfoVBxxcn+sevt8eshHZsmfpyRNDTS2nTkb0mN+Jl/lDl+fTTS2hhJChiF1etI5f8o1DlJBQcB82zzP4UrigsFXx1A0EaC76Tj3A/th/zU7nl0/GV++eF1M7OA5pH8iCheGuSg4l58+jV+G4iAdbB6+azy++fENsXvndKw8cyBOOmdAZunPCTGTt9JuYaedesizzp3ZO43EyHNkgHZwkQ+CaS2nsYqhgCWhDG5rkeVH2pkQgf27Vjr4HP3SoTj8pMEY3bIrvnTRozE2sqtFVt72KaQyfvqzZ5Mc0fhKgHX3TcYPPo2vL9pp5w/HwgN4V6JJLrqnYv7zeqJv0PtFGYq/RuaOITGbE/jknzjcx9Pejs4z58mftlO8GuMDQhqTKUSFMLcSkQzMcXLx6QDl3r+kTw8u0Z719sWMFj/8/FOxGUdPNliK1B/ieuKd147G857fGyeePRRnXjA/vnbxs3Hw8XPilNcNxaIDe6OnnCJtXL8rbr5ie9x97Q4QcFK56nL5U5yncUxV2cpWtGFWvmWQad9XCuACw/5dL71RotxhEoJKFa5YcVwdyoXEJMJDunWWrDh1OM6/aGk88dCO+NRfrRWLutPFrH0eRqXnBV85cmwsxmXjvMqog93ced3xrs8tUf/0w5M6IaftJHYV27dMxfCiHp2YU/bIXRNx5b9uxUl6Lhbm5zaTP+XJt9Bw/BYXeiafWVzGMuyoLKsOeZHRlxuFTly2Sqyge7+WdCJOfOVeYvaLKzYJo1ItW9DxsjS+YNl4FzmDof2264kTY9NxEw4sPMXhr5ntW3fH1V/cEr/65Q7cs8DtRpw+Pv8FfbHqguFYdvScOOf98+OyizfF1G7kxYT2wF88Us6t9DtcT8Q+MKskzpo133lq/VJCmRgmdedqN9Wpd3ZXLDuqX3fH7rphawGEv6ovhGJNmQ8o6Z49bb1vsoTz5JM9NTxbuOn7I9jP7saK2x1fuWhD3HPDWExhj0E7/mp58Obx+ML7no4Nj+yM/Q6dHae8wQcd+rexOFdDBZltkxuL6Piua1OrvJ6o0xjYCNCgNuKYL/5Tp3mZ0kFi28gWV5qXHDo3emd34+s7Hju272ZsucuW/vIrPXVFRhQVTfqyOFr2RGHBzcl+xJzEKvzsu5+Iz7zrydi4fmfVK558pmN823Rc+W9btPJOfM08HWAqDm2KXeLTlyuxsWF0LxjK2LzxOW6dxhCInnKshkXGIDDXEpfOzgLksLQhnDCzbXxiQn0TEEby4y7AQyGUODIuHzW+gxUcUkVryTil7di23TGOjZUNm0Jy6UtOTz40Gfdcv0O7oCNfOrdkg5xEJj3d1/iYSi+gNn+ObcuNXk9jbGdNgnCmGPxgWPQJmj39csn3D+InAxpPW6xv/Chvb+XKoshT7562jGWrjMVeK7VwSYxOWfqms+eP3eONuv8R/kmYmI5HnrZT34HfmbN4tWzL9cDGmQDe0rJS0pJxOuNNOeD1Oae/K/Y/rJ+i6J2L7aLV0uCaIrW2zwTUQ+SvRaPniM12MrBAQssbzGLHmC0hueX1xCce9GWxfQ/pjeNe1R9DC72xaUOXWpgmikb/1/XE1nmgPbVzLMlTkofrTMRHYh65eb94OuYNzYpXvHm/OOHMvWJOn0nxBDoJ0V55cTkVPOryiK5Kpw300smSH45DAHlXP8h11Uipi4tcMHU5KkDlzys+vDQ2f9GseNmbh+OMN03Hg6sn4pffGY0ND/Nc1dVnfHNChyHZqxyQSwOuDX/w+IuTb5jOIjlZmOtfqyekD0NND6NDVw7Gmy4+OAaGZ2kn/cBt2+K2n26KNddsQRAHhyu9G78WjohRWy6BpZ3kKmpyaLBsSx/j6rMDM30Ys9OG35JDju+LQ1bOjcNe2Kdrkjytufl72+Nn/zka/M3d1KAUjhAt/u3zWMKrgLVgFCQZC+nayFKH/qgXz4+3XnIwro50x69Wj8R3PvU4rutN/L9cT8xfCk6u4dhOLHkP7jUrjn3ZQBx41FxccxyPO3+6Hac5XDuNH237BrvjRX8yGMefNU8n3GvXTMTl/7RZ55BlqbEC9Cr5+1vDufhIgxlXoCy5YloFkuvMeQFbvHRufOAzR8ac/p746Teeiu99bj3MCdP8KqFrbsPERYAiMxnpJWO0jJ+Ec96Jw6Tyq0RcY0QcjJPm484ciuUn9tdfIMTkCntg9Y5Y8+NR3CKYsH3Jlf77Htobr/3rvaN/qDt+8e3R+Pk3RyumsCuv5GMG+gVD3YUnX6/NIyoAbLdMXESLjnZ/+c/L44gT58fqHz8bX/37hwnD2ihw+hBH4xbZxG5/DTtIAqRhQEzPFL+toR1UAwtmxcqXD8XKVUO6cEv83bumdaX7wdVjcRiKyTevIbJxH3j7T0bjzmvG9HNP0QC06MBZceSp/XHDZdvwNYYtK4Iu2Sh+4UKcyp/jC150Xd0HSkm3YlwdBWjSSw+fFx/87NE4/9oVHz3/Tl9paf8+ZmD+PlYgfrqRTBuX9LxqGzkMWn4tOSzFRRi4Sr1yXpyA2wOHnTQvenAjim3TUztx32Qkbv/paIxt9a8c+gwM98QKfKVfsGoQN69wpQONq/LBW8bjdqzKtViV3T6bk468eFuDTWxKChw/l399vM0ECwI2ACvmxqNyd3l6idIVp/i3Llcfz/eKFboSCSMfyYqKGiRCTB1YuHF8hBHBjCRvG+zRf2B+dxy3aj7uq8zvWG33/nw0Vv9oq+7gMaKSLjE550+9X+A2AN8HHTsX1xEH47AT+nBX0G+uyjuuHou7clWKXmFFUhiaP8fe9eSZAuU4jWEYO8iQRnwpUeroZ0eOD1s5xC7u+jl2uC1ACUtx2DGVRm8SssGHQ2ZM4yOg4qaPMWzz6ncsjhNftaBZbU9Oxi1XbY01V4/oq6ho9Meb/r24ibXvwXN0w2rXZMbpUpEfwYqbN9wdx3BVvnxAq/LU84biJa8fjDVXbY+ffHErcPwNAhRpmbByKtyViBeEno3xUa4JVFegAEwqE5u/0GfyTz+Oa2zErsW1vwsHhQJ6YzCs7FhUeeVlLMozcfuQMG2zMZkXnr1Axbn7ZyOx+sqt8dCa7UqSMRgmC7d42ew4/pXDccypA7jM1YOfeFNx13WjceuPRuKZR/FtkTFWJa7c3Hj5CN7b4qAVc/D1HsCt1v5Y+cp5uKIzUnPK3FQPceJGLk2V1Ve4EC5bj+ok1O45ZhtY4N+72zb5x3vbJhOXKWuAAX9maW3BnUSSQmNLXBnXwtGmkuflsxL763+3vl5PdFIRs/Gr56iXDMUJKNz+y3HHvtV4zfCEs6DDe/0DEyjktrj352OxC7dQvYlwmwArku+/+W7/HvM2TzAS/xa4CqrnA02eSbhEMILIAezAhPiTSIkURRd+dEzj3gRxasFg7ly50oCXIAwuOxbmt19PBIL+OTIBKiuJtEEQZCHuHZ98zoJYcfqQVhuVO0Z3xx3/sy36ULgVZwxpPI6bUCtOH4glh83Re9XbpuJurMrVPxiNTU+U3+ytEFnadgFUvJKnNqw42smHJVlTwARZPCTvSqiSdQ7dM0+Mx34H9cc+S+bEelx1lkErSaZMkPRPQh2rSiY4OGUM+iC8KcFD/rrOISyq3YhOq+m48BNLsS8z/cfu3aF94t038OmF6Tj9PB/oNuPIfO3XN8fVX94UR54ygPPEwTjgiLk4eR6KI148Ly598zrBklttmX/DRikyHy8CW+Y3RL+FtWyoVeF8MuylW2GdFEDXP7RdBVx+3HCs/zWu/uKVSdHaNWEwyJ2rQGSXBVOBYCNfqBWa9vyq0Kn4lyQEQDP5sY9avE++c20889hOmbAQueEooB3Bd01OxR3XjOC9Ded8s+Odn9of/vwKUd/ZKDJtjFIPQdbDhYRCPOv1wAaEhpl8TTDVALr1mmc1O/nVi3HFO68q05KgDpTB2jjkQmLOirMSh8PSJGV8YqElTlGj8ypwYSzd8KivsqRNp0/iMJrcUezGnraOZTua7Ol6YvJhzdo+HON7AjX2S3IWM879dlQ7pf7On23ESet47LusP1527n4tv047B6Is5S1ceFGfjfs1tirL+CLQ2HVeT0xv+iX/7Fu6Fi7xM5YtjN0pMw9xoRpvjjWsvCwjBi7pc8I3742ip7TV5Nxy3I2z+MsuXSuLP37Hsjj6xQs0VsD001LDRH5OiqrEz94yz9K/6gpGymnrVi00lR6iLGITpVgzOUZWb1l+UvOc1hKybHk90bjPsW4e7UgVCTVvJs8DArWWc8RVeNXX1uk35oV/uzzOfOMSXJ+jBlZ6PKLBsBTyWkzqcqU0mOZtXcbnymjlIwzFaBVDtiUIbduriTo1fvUwqHNLW5yKoNhk/LY9xyxmOwZlOIw5SD5S0t4Ja59TQC1HMRkLLt/99MPqV52/JM658MA4+VWL49rvPBn3/HJLPLN+nFZlp2finbjQITjvGtKIXZJt7BiLmZsfLZsRZ9kozYMORt7aRVkOVDBRKEmbEaeGn4FcTBKK3Bpc28oPBvglYhQbcNYENWUf2biyaMMt7GcIp1XE+2/bEq9/38Gx+IC+eN17DsKb52O7YgQn2pPjzdeXYTKLzhQ6Z7LDx6XvvF8F69Ryhc4sEouQJ9st/gKifcNbOZbVT3XqcuNJxqiEQTOa47VtiaPvBrDLeaCXfgZQT4RmE3BiSBaxFJOie2/aEpecd2sc+9K9Y+XpC4OnN0MLZkffQIUm0u/VOovXJJS7AIJmku0EzbUJyaLvsc0MAKPEob3VKpUDUcbilfw59nmgrBu09hahioXEP4Bz4i3qLUAdJFhoa67dGLdf54d++gZ6YmB+b8ztdxHpmxuFX0u+3KgoIw0ZxwJx4LCdPAjwldfj5CmZ8V1MfJaKcZ44jMlxJxxmJb5Z+LMzf5PIv42jTkUkEv75ppIeizU4A3T8QkgS6JU4DdiAm4ESUOBQ8CcV35SrIPTRWJ4Y+mqHZ1T5CKRc8NGhlzAts08S5qD4pWhp0e7Fk7gk3Wpt/ilWDuDqahQPhPOGU80qDmVingGoZgjO9WJfiEmm/UeRQe7F0thUEvbWJ//GtoC2sJqb3/ZpCsK5Yxk341OeR+W2jJ7VO7mmZI/8ieRm/o6XMvYd+ImJPo/w7b93LifSTRGSpIBEpINikdhetlBnwjU4ZO3VKkK58QvcTB/NK3kaNYlM7PCTB7y6Irk+84NceHrR6ZNaoGDohUFZ2mlcCsw/u2DjQU9cPXVe8gBGmz/0yb884lv2DwDkVhFIASdWGjs4wKBLRMrSR370z5fs7J9bLXVJSD4MAh+/ySVnlIWO6OyH9+6tXMbHXFQ/C9j4eLXTmhjmSTwvjGlclLWOl/WNPo3HkL2vHt3M+5rwg4NeLf71/Naa8u3D7k4OrUB0ZrEJoF5gDko8vYs+k1efgWlAPfsi41z7Qg6yCatlCzl9jCklJD5t2vCYH8tYvGxOesdTD/tcc7+D++gpeeNfzYDHU6nUR+y9xNczNz/t65m0XLi/LxI/u27yObzNB0YsRrZCj7rumZVl3gznnmV0y1FNMOVKmvbyoqecOde7IPgsHvuR8v8lEI+vXBlpL3+hGIdE1j24XdEOOmoAUxREsjHJVpw65DgZj27S+INjvaFnO/yFfsTtsft8RZ3xl/4RN0LEk2u9oYjPN1/ZnB/E5N+S6z+dSCP3UHdsNc4N1Ha0TXpmIH+VSKo2DOlf94llSyam06vWotboqMV93dtGZHD4Cb4fQ/Sbr9oo2Uln7Y37GlhBwM2DWgcmC0E+0Otm+tm+VrjmmvL8IlAOPc7P9Ky9fUy23qiC1zz5ZE9NLggdRESTO2IGoxZMGLPtIB2FTKnYpUxSylR4J9LoiFl+Rwq0hVtiSCx/45OCY9Ag8HT+aPAWwqID5sbSI/ql459O3HHdZj2P85aPLMMzOn5Wh77ZSjhN5/R1xbkf3C/45MKv14zGQ7dtFw5vPvGPgLZv3RWP3ONVrQ3Rwce5tfMWKLjpakxO2GfiHksjGT60G2hSbBXCZvqs/tjiLFxHqzLL21c6ZEt9JV7wIduNM/+brvJ1yDPOXQxIs/j2Jx+PDY/j0trz++L9n1+OS/wLUaCeVtTpmL8PnsZ6+XC873OHxPLjB2M7bsV+6xNPGAGxXvKnuSJHcL+4FR9xHYeyMmrJpGVN3nDs983d67/u7GmbJ8IE0JhesNPXEQYaCZRiLmYAFpy0y3n2hujESFntS7zEIP1h3A388FeO1or71Hvvj7VYlcTkkfn8i5bFISsG6a62c2JKtzZ34ko0n5jN9szjE/EfH3lMf5tHmgcc3h/v+JcDdRvg0gsejpFndwLT9k4DPDkgn3KznViUlQyi56jFf3ZJBqBthyMU8C2FIpgFtjFQ+qYljWjmXqNqkkWspApQ8YALY5CEY9rRG4VP3/MRjUOPxfMvxw/FLVdv0h8o8g94Vl+1CX8FNY47dD266Z5F41MLfNTj0XvH4prLnonLP/mE/naFIfqHeuKtHz8Qv9l74vpvbYz7btxW8nRUczV/fmo0g69yfP0x/10f7bATAUoiHDEpu1PhBNE3P/dsa+wmoMCL/W/CJR5b/s6UnbdYjan4hTj/nvjdlx4eBx8zGI8/MBb//uFf42+LuWqcIju+5w33xiBuv/JckU8mTPmWibKgLfeDb/rIgXggtE/F/cKHHtXXl3mzCU2YxPM9oqqjPFck+p4jF7/hEkXl95TOcmRR6GJAy/VZ9DKkoATz+tMcjvJSLxCtYgHSnkqH6sCnL5u85Wbf5EBepHjvjVvj6FMW4MZWX7zgjAW49jgRz+CxukJfCJPj0zooTODG+jROmIWrwDyNGVLxFh0wB89yT8aXPvxo8E8mkhTjkCKJJhdN+YFW+eTs3GOugDfEJYB6SoyivpFR2NgKsARs/LkPIaESinqCCVOgzTOEiQVxsW54QOJ/TbyM0T84K95yCQ4Kx/m05vEHtsfNP9oY99+6DU/r82QYrgpl1EW4VnkoHkg6ftVeccByn7I8dMdofPVjjwfvG2ce7s0/+RDIT24Q09LkIdYuoDAKeRNm/EycIAYnAMfeLxkoJTMDGEd+9jYMsUoxTQhzQ5b4JS58kmjtGb1w4f7t5NcsilXn76sDjELgYxIHEJ6S8Mn9PjzewXvHfFYm28jGnXHNNzbETT/AHwLxUbZSFOqN3cTIWM7Q+kJVttR3ve7o/+JyqQKMONVnAnDW7PNsS5lzKfAEa5GxvmAVXVmYsnMM+8wcc86W8YXrYIxa5YzBP+459rS98LwiHnfDg09De/mnmhH8yavjPPd74JZtccf1W/DXnslLLGWkWL+NP2JlMx/OwOW1R11eDiKkJhkI5qG8yCgWOPZDGLeLSRA9T0dFSdL6dqKNP6xcAAZrrUTK2RhRyXDMmMQs2AUest98PXEWCjrIK+JYfRNjUzrq7sIjKDNxGUnfpFY8AEvq+A0P8ZJOFTIveefDRSRbBOqxE7FpcucO3KfFBOdPHSVXrKhzUBPlvAISGz6SoRIeW50+ModNtvYJOH+rt59PtD/3W+0EVWG5s1ibN0zGFloUTPkgdo1T+LFc9GRTdBsUrpZL18G//OKBjPD1ppK2hgwZmIglaU5YD0UgnMlmkShmXDYSbYpLSxY0m0c2xaf/sQwwsNTF8UZQ8hYrIc0JlbIZPooirtxInJm/Mc1NNvgQRCFtF0gwUEEhp48xSjChJX/n5AWBeyLMXkEKeoKQAENpzpAVy3J9TeFLMb9SBjRRjm3VzAUPIeV28m6CCMTq8M9gAHcBuHrM0wCWCyrl6QMDiGog8mdAc4KOTmjezVDOYjU+LFxyoZ1zEwLGmMOenCUnDo0MrgHGPqwnSPvKDGHyTRC+yE99IZ5YlIk6sknSTExvoUCuTCkrOOj3JIO5kmRfm7CM3PbxuAQCA11ZsVnhaQTapZ9zMo+UNT3rkXHoW8ZEAwb+XnjGc38ssxoNuHXsg5mSMHBLXpJXtejHu+XFxw8I1jUAMbc0cWioj5KEHSwhRtKkHS1ZCPPMW4rFHf4sLoycV8UW3yKjre0Y//d8PlG8O3dR5NacIHHGQHg953pYYZdbhXb6H3Phkhzp7sbCt7ca57YidrZc6enj3l8lxq8NQxXd5LLuFXMmA3pmPGIwZsZNOW06YtAQOXnDwlr8KUQDF/lB38RqbOp9YYLSRjtQ2cKIoBqbiCeQcGtQ3momRweuThfCAW2Z5ElS9akDgNQxV6d/e6Z9huCcK5EvMFMMdKU4jMEMDEXW8m/EtmMcNmJhTBzPLSMPyqs/cNgEI9LG5zB5tFagwRi4ki9ODFToOfuUy1Yxkr9807+YGQ8TEYF5od3EKRDsanwYZ9SqrjIj/K7XE5M/4yMAP/QWzySTUuZUGDZ5wEh+XhgcCgGDehCBf01IEAUox3QhYH69E5xVqV9nIhec5mtsvwyYpKu/cNsHrmJPLMM1vMiJ7+SqirR4d8RPu9S3cNOfZNHy61w5lTgmYD/aMadqU8jt+e+FaV0ad9qdzXPS00ikM4hSs7m+Ig05CZlwsXfvKUUiR7W966cKVhOq4ppIYVHnsiiFZYz2/izZZU9b+yd/xxeHmRunhrZ3FrI8I53faQDowZliDVvvEyAviXv/xiNi57mfQ5d9Tw3W6U8I++e5H1de7nfslMTKTPbmwCQb/8ShnfXFgxs8C9jSdfLnPrCTP7zgloU0gGTcL0KXvDKue/zHO9rksKgG4kEoEnNZyLxNUibKpugZgnP5MBwb93mWJ1Y7M1ubNK0z78445kFulhNT0IW2Y3kVUUG8jK+JZI2/pv4AJg+S6VHz10GE8pn8zYWabHTv2AdmEQzmrZHAM/d9JJ069eUry8Jwzrd9IMEfjNg2+8Ym7bMUJAergtHsc7QrgTH3t94uLSzYy49xq29iNLq0UV/sFA1+xhRMJ3/q0HKf7jwa/v8LWCc6P7hMSMIAAAAASUVORK5CYII=;" vertex="1" parent="1">
          <mxGeometry x="200" y="320" width="80" height="80" as="geometry" />
        </mxCell>
        <mxCell id="S-3AYEZfy06Mwkrb09BF-7" value="" style="shape=image;verticalLabelPosition=bottom;labelBackgroundColor=#ffffff;verticalAlign=top;aspect=fixed;imageAspect=0;image=data:image/png,iVBORw0KGgoAAAANSUhEUgAAAFAAAABQCAYAAACOEfKtAAAAAXNSR0IArs4c6QAAI0dJREFUeAGtfAu0XlV17jyPvE9yTt7vBwmBGBKI5oEYDCQgAcUWr4qICBaft6PVgW1HB6PaUq2Me1vb4aDe22rVKq2gWCuWhyIQERIeCWoghEdCQgh5v5OTnLxzOr/vm3Pt/Z+AXse468+/11rz8c1vzb322vvfe580/fni57qbTKWpCa0mU+0t9imhAfqw6IYV2uynd80+5F6poOFO6dPQdhVQu4tefQRSNPkBCP6QAqypqZktyaCt9CkrNS2lhzcKdcFTkpo+5JV/WEAODoVrk7WCeSaEtfe6MZoISlf30SArW6DUzXKwsJc/PX2jATf7gFGgAwkiIUzoq3BIJhVQlkIfypW8njY5WDj01EFW+Webltiw1P0dgDlJnTsrcS7oyb85g6HOb3GMBuWNkI4ksOKPlHSfIgbcQKGkIWx7SGXjPixhc+qUN3KaQMEdLm4yxFbI2Jb4zh++4JB6WAqqYkMfKIDBRHldi3GqJK9mGblJN9ZAcHlzZUaJbMKBifM2itoaLNsuw2xGQZ81t1WfstR5DXIop05Via7boM0jxO0Uo0ocedaw3KDkWajwVoGZ+FYxYV94og1TBvMaDiyqFVviug95Y7dzR7mtj7/VzQSMaeofOGA6Axu6LNChIDRaApaMCt/kYZKHQwaHPmUJmbr0SZtTPoNyfcO4yAM0IlTFCLxTr4Z4SaZ4cswx1cejnGEsWn8Rn8Fi/OiWsVLl6BEc8my3ikSAuA0I5+AAgsHAhmDQ+ylHbZdD79ueSaC/28Kg6GQMB5Zm7SHGog2Ma/bpV+kEEO4AJg64AQs1sCFt5A+GkgGLHZjKXfGbfX0mgBQ9/aGDuubuMbWmaxuocEznqq7WFMUAHfCo2wah9AdPGZc6ExfOJNTTJjEzCSRMTHqRJZOB+JTHkvK6/MMn1kTmi5wKgrj14JqcMEKUsibCTpBsKH63+QwECcKH2tulC5foeHDsQQCiThP2E9illJOox/FOWiIgZ5Ovf9iVdTmdkl0CZx8MXAZI1Y4DB3S81PlTknIMVwQIn7yTB53pDzwv4SfUjAcSGUdx5U8HbCxmoLfcThiYWdqztHDmcBIOAFF62EgojduWvQbL9I92mmKt44yr9qtUGDfiRaFN9GviBpu0BUfYI74KwWibY0tbnAgYOk2Dh/hi/FI08E+Za8EfNq0ISDmCehSuE85Eg1D2sc1BgQhNYUNHVxYZIIBBB2rRRCl4AcA4hTwoRAf+sEc/9cRXh7M4uBYDqrARf4X3Pokgulu6D+Ty9xMVewWhNMjL/XK8dHbb0he5wMEMFC/aoQnDHEw6sQZpAsFG8VKvINrSHwYIFOBpX5dR6wrFAraKz59CljrHST7KfeUjXukZ/sBEQC9ZizBkkYgIV83UZCqf9AsY4iBqbX8UfB7CCZSOCKg2ImUb4NXgqpCSAzEPfQSGP2vKxRgyHd6JKXmjLH0BwvDCCpzkmLWLqW+oC2cBpC1qfms+9MPhXJPJxm35CXzQob8OXbRR/EK6RxAAQcMZVCMHGUsPewDhX1k3pS/WDESDFIW9IqeQhOLwKDIH1loDCXBPL/VBNkaWLS96vSnvtEgv8JYs67TMSJVcGlr7JuV+FsbUxHrGCR4KZY8y13FcDOQ2sE0fJs21aQOi0GV0R8V1JATAcmXl35zrSreNmNjHJs7oayMm9LahY3tZ+4gW69OvmV+4HT1yyo51ddv+nSdsz+aTtvO1E7bp+WO2y2sUD4+tfz0x5Oltdb2K1c7lOZ6KP1mRE7gBSP60BKh0RQ5Y5Koah59EIhYDhwNdkQhnUQ9MebUBR6UmA1f+wlUwMJct7NWa8KY+dt6igXb2vAE2oKMFijcs/Xu1WP+BZh0jWz3Rldmh/Sft5RVHbfWjh23TC8eJzJNAZcLBKjeKmzzED1uMAFJvg6f2BuXccPyZC7dLAHlY02cWrvCrJSj86wDNnBnqwhr2nEUIQ3CXRRDpsIVN1lhWI6AU5ZcCbM6Z32aXXD/Uho3tDS1L14GTtnnNUdv00lEbO7WPnTWvf6oa6rUrDtvWl4/Z2LP72Ogze1n/QVXi92w5YY/d2Wlrlx/jOJxQjDX5Vvz5y8WRK/6wUSiOlYlEX3KOrZZc5SPskUBBYdB+j41A4ZgUKnRAuqfIsF2IZhLhKzaldp+JM/rZ4huH2/iz+zLy4YMn7dmfH7RfPdhpOzb4oL1MmN7XbvjSaP+xbvbInfvsuUcOUT5zYZtddE27YTX47l/u9Nl2jDFGTOpl513a385Z0N/6DuD50LasPWaP/vtB2/QiZmQPHuSV/P8/3U/89MXLmUBgI2AOGszrmW+Ui2z6FFsXiDIl9O8Y0Wrv/sNRNm1eG4S2/dWjtuw/99rqpQfthOctceH54S+Otsnn9bOHvrPHnvjPA64TDkDf9j/abdGHO+yVZ47Y976wi1iM5ka9fDJPe1s/O//322zY+F7UrfvlEXv4m512YBduTvQcV/B3yxK/2NRGIALISmVXfNzO/1UnEU8jZpYWSO0dSGDE5bc2heMYiQVXJLT40qMEm3hOP/vQ58bagPZWO3r4lP38jt32xN173Y9Dd9zKHjFw+KJgZjImqbvADVe5DAkcM7U69MWr23dEs8/Ww1wL517ZZvOvbrMps/vaaLf98d/vs80+G4GRySr8EczXOMjBX2tldahDrXRWbApnAPo/7Qq0akVgANQXKkDoeg0x0YMPThLEgQkUUXXb7Mva7cZbJzB5qx/vtK98Yr0t/eFuvxeY/hgQzYmH1vFjuMaSno1aO6A9Wc7jDe4n4tBfcc8h+8Zndtqap474GtlsV39+sM1c2Fc8a/zANcJTl/FQwyzHntfIEEImvUaPATCBacxk0KgyTMDcF+z7Jn285W39roXO73fZlZ8cZe+9aYy1+N3GB2/fYXf8zSbr3K1LDoUOnyCVWNvWay08b5EOd8qB75+ZCwcQPm3SB8J6G9eNnXtO2d1f3mtLv9/pHJps8afabeENbdxhHCN8/FNdwCd/8JKFdm5jHuCVX8U8ZS3zJn7slpzacor9wk5OZ9Isewy9vJ+HxKY/GCJ5F75nGGfTXX+32Z66bz/MGRoAefDm9SGi6RAy27/rhL350kE2wQ/9kydO2Z6tx3ktOOeKgbbw2sHW3NJk9/6f3bweVHxxLfETK+qNq4/Z3q0n/XDuY+Om9bbefnLfsFI7ST7yz7My+EviAFESm6lkTqqY6Db90YInQ5euSEgMlA5qR9N11QKMGOhL12TzLh9s7/vsOCbvWzdvsA2rD5NGT7IhZJWJIIYzefvVQ+xSv8x5vbLk3/fa4z88wL2RAzutru3Q1I17U28/lIdYa68me+CfD/h6eqQkqs4fMZGF5FuNGYlVfhIz65Y5Ez56S0GjcwIIjKCRWzlp7UiAmFt2xowBfsKYwEuN7//tZntxxcEAwN7wrycHPrkn0599BGFpso3PH/FLkMN+WdJSrhXXrOiyn3x9t59c/LIGhxghgxT8ak220a8Bd/qZeN+2E3b2W/vZGbN622s+Mzt3a72tG8INvApPBgrewKvxRxvFp1MtkgvQ0zoANfr6sM31QTZlcXVFx4hedv1fTfQ93Gw/u327rXxkL8xVYp3TIDMW1pocQBqmebet/VWX3fHFrUVx5xe32fqVhxt4/a73E19YdqSsib//px02cGg96xHKRRhtNTbnG/yVr+Tv4rifyMeayEu1EMuIfQfDP1YAUrMMRKnttvf80Vhr62i1VUv328Pf3eFW1WWB0BrxuYMAHeSSNOXwxthAqhS3wIkqOaSuEKpjyYncYBcw8F32g4O2ZrnOzpd8dJCr4gPcwIe3wkMnd9Q84URc7Xxpy2UMzbEHCKaoHFDsFUgA7AbY8Av9ZD90p1/Q7td5J+1HX90Ug6z508X79ENi1SQCZW5QKyU+g0lBHzRFoFjTtgwzbH/L/cSHvrnfjvk1KU4sY6fxoWTBQ6PEjzaVSTomBkO6AkktlzEwhHPWIheDpRx7Sd+0QX3lJ8ei8kN3m59F/YIVpdgxTTXc3+1+osAaeXEm+AjEVXwbZbKnXuHFm7S6fe07yZkI7Iuu8zsUXoRVqxvwM1aFS9jIVdwPrJyJmHufiajWquBT9vm5Czps4psG2LYNh+3R/8Ch6zjx1WypcCFXkUUDaRdVa2JBSAevaVD12fWBVRIlAbxrQli83v3Ep+875LfCjvNXzdS39qYL+MC15k7033Y/sbzakVzoEDMoBwkdA3Dhxx5RUt954xi6Lfn+djtJkXSyzQtVIacssVRX6xr7vsm1ph4bO4ODi71OHWQ9djCMMk7WwEVBXyces5Mnu+2pH+tGxduvwSzMtNX4uww+KJxPjKV+ylHzmQga+aVHbuip4CnKGmvfiPF9revgCXvGz7qn+8dPpXpgdwaF/AqrIgWMLFUr4kPHb1iErcTBPxMRvONKoySiitdtLz7eZUcOnbIhY1p9LexVdlzGz9qRpXNBAyca5BoYKibB25mMrGGbg8t67mJd7D79s9127KhPP84Iohb/nE3yxxQVtvr1tmZ0UgRpBxFYbLXOQVzhJJd6DV/08W2ML7y0Pe6/qZ/7RRfRz1nQL878Cpb+qlOmuMBESZs4C0uQCtYYhBcSym3Neeb8DuqfuH8XLfOwToJQxkQgCvqZkkxCo0zaoWN62UUfGGaf+IeJULN8/MvjbYH/QsHtfpRMZi0ABwTd6fFjBJFU2sQ13LMPK4Fnzu2jN7sa/AtbSOFWSrWu4nYWlP4vf6rAqk4ivXR1Ltsxk/v7dV8vO7jvuG1ZBxK4eqcn2wBkriGL2PzlgUH4Bz+fpPe2IHkn/KKrh/rPuBHW4r9562X8tH6G76LrhtqSf9vtd3VwoV6L4b035i8S+S4LxpZj2bHhuOFu+ID2Fhs+scV2bTxJpDccP0knfw2suh9IQq5kMqoBaODKA5KEBJw5S6f/V184xGSTEPGqBBWE8HE3EldiYKyLbfTxGOH6v57gN10HEm/5T/ba0w/ss50b9cMfD53mLO7wb7u94yPDeLPhzi9s4UyEfyYk91rpZ1o9nHZcjMPlKJDhDvaZs30H+TOana9iPOJDA2x+E39Xx+tt9cEJOAFwVm6Ot5c4bM/i6DP6Ub3hhYM2eWabXfGRsTZxWhtvImxa22UP3eE/vZ7138JRckAghzZZeoWdBcyLPjCcyevcc9zwO3rdSpwhMas10E0v+e/jl7bZql8csPf/2Rg7e+4Am/++wbb0P/STsZpV8AK8ZhnCZ3v89N72tve22+jJva21dxMTt/SuA7ZljRI4bIKnwovogRU6/g3OlAQuMaF245a3jPvILd5m0eDgV5Fv0HkHukUfGG1DR/e1o10n7cqPjrfh4/o6KTyG9ENhbF87//JhdvJ4t61fdTCSUOFlUhJ3xPg+dt3n/SaEk739rzcyebCp20GHuHu3H7et64/arEWDbNLM/kxoV2eegDSgHHDdf/772+2qm4bbkNG9rHffZt6VGTyq1WZe3N+OH+3m2nrssJ9U/K42ZiXIIHeMGrGLDGSiIKlcA3k/DNPDCwITBB1i6VDLPQnkoaN0633m/MF24vgp+6+vbbLlD+yi79zFw+ydfzDG3vWxsbZxzSFb+0vMREfE3vOPouT9xG6bcWE717yn7t9jL/vMAz/YZsn1EpygW7+yy375wH6bc3mHTb9woD121x5xrvNHG+P0asqb+/vaOZg79JE799qqR3TiODceVE2dq6OpfXhLma051lIDiPiZWMeORFY/5YJ4kmddG0x9j/bpXz1OvO9bm+zBO7bYAT/89u8+5ofvVrv/Xzdz/AveMyIuJZSOsmMwNieE7/S3aj1d/tM9RQbriocuHyTjlusjWtP8mTIlyBcTJkwkL/3nXTmINkje4/6g6uDek3Zwz0k+tPrFnbrZC4Pe/TVx4Cco7TD0/R8LqvKl/JQeKuXugiOLW4UPu8g7Tt2cnb4m9q0l8Mmf7nTbygEDWfHAbvu9T4y3cy7osK8smR2gv7na9sqRGLQD1IlkBwNzcFzC4MkeCs7MX7j3rN8MHNpnlmhN7q69n7jqEX9Qdb0ux/r4oc2kZ+xaAjAmJFE1EgyOMix3YxQHh6uuswor5Abk4QRQ+RV1Y6rVY0JrFv9PzcIJe7xa10CoGhgIeDmNg8S/bUucMMqfdaf5xHhTjrGkH3KTJWW8jInUug57Wbfo06DugCTic8RPHm3tyv35i4f7IYybn0LHjpl32TC6PffEPvuXm9c6ZozYa7bdFDXEn77tLJs4fYCN9PdiXnvpcNhq3c1MwTv5wGf4eD3a3Oh3rr/22VfDB9bCh412dpN96C9H21l+1j7XH0ot+6EfslBiQng982ItASCLx66M4XK5I5PQeKFLji+4RZDyS0SWIiog+CdCaAHknyOHcMGpgrPwO64d7Xd4W23Q0F526QdH2ztv1C2uR3+4TcEDCcRAHihE8vbqJ7QOzbtiiKQuy7iZNNb00xEy168JUV58spN1fQPb5I8YT92zj+qLrx1i8/0ypm1ws39b/EH9ILv4g8KBAc7CKP4DUP5suyzGDJ1yn/wUJ64DNfMQWEYwh697A4DynBVmu7cdsWFj+tqzy/bYOecPtqs+NZFfeWl7z7+8Zi887W8XAMBpNeB6JzGffXSfLf7IaDv/nUP9UcA+XQMiCYgPVy/e9TZ8/EborDaegXFHZdVSJRByna2zppdvmuzlXx+2h2/fzfdxLr3Bf+n4N8spx1izvIvv4uzbcaJw4g6gtwiQTW0A4qJZ3DJrzPW3CJCUyZpu7qDBZzgNAr3JMwb5hfNAW/6zHXbvtzbakJF9+AAdM3Pds5323b9dZ08/uDscFQhBMSAWtoV36MAJO3Wi286aPcjOmjPQNq87bHu26d2XsJaf+5w5a4Bd8+fjDFcBD35nh73wpE4MsvM4+JQQaKiz0Z8Oblh12AYOabXe/XxH+BIL2Y9v28Vrwkkz+9m6X3fZy/46SI5ZfLHrkz/QhJc61OWnnEam2ZZtzRyQgiOmrAa9eb3upU2aPtDu+/ZrdttNz9OFdrkfegTTXhUZzb4467nnku9t96d6bX5J026f/N+T7an7d9vyn+71G7U+II89alJff2Q6xOZdMZj9F5/qtF/c5TcxEAtx3EYMxV/DhA7xfJVywYbnjvh3C/1d7E8PXej1he/TYbxjo17/0NyHr4rGLlwlU7zz2pmHMExxgwKB0yHcEaNMbRLy/tpfaV05wxMIg3rQ3Ev0j5Hk4SrM2OIwpR6Hptk3/mKdXfLBkXa5X4S/9V3D+G2w9w4O2we/s80e8eSBreDBUEsC7JO/pC4XwbClBTYYlG+abOxZ+lGAGcoEwTJ4c97QVDsebhwwtnTHDKQsDQSaQWWsGYjfxCCH67DNr3RZ595jNnBwbxs7pb9tXt/lMWMQCE5QAKvAL5NY6hyY2yeZh+7Yzid7M9/eYTP8QRXOziivPn/Inn/SH4g/tt92bfbX1jgyBRG2rlGTLxPhao4DzII3/bhego/ZyEm9+Y7hoX3+1itmIEqNPyKgqxgafyP/uKEKv7zH1nANRqKu5Ahh5ZCOiL+KXPmY1rgL3z0KCiaooY4sYhDlEzggITXoqZlxd7zmr6V5Im/79BrqsPnqZ162JXfusJ2bdXdGthhewKCuYztJaoN/oU+PaqxvWaxfKS8t110l4tWMkx35u7zEwOHq/zBp4rmwyAQ+DWFcvlA4GrAJ4u0nfrKd5udfPoILcfqiLn41DMqRSoDAJtppSyFYsVR26KaPN/wfLrI1g4AhWWLSmjaJyzpw0cZEQWn1S8lzL9ZLTCuXNF4ONfgyRB6hwQW5wMex9FAJqSa5KgCjxCYB2UV8/659Zr9te7XL311utTmXDCMgr+6DYPrrsCF8uHPYoRYJdOCmAfp1WGizSrLZJwH61P3VBkbPQv49UGdc2Gb92vwmqs9qvE6iGI3XgAUpuCEuPlnQ5oU0gyKJLlAuZcjAQUht/bCnvcvv/vorxLrs2nH+5lTCZhhh4F2+AGWCGMVnETGKS0VKevftkQigVcuMsDkT3aF4N3AVRuKgzmWiyW+Dz3/vYEbHNWKxCT7ZTy5Z5+ytv5/oCWwMlCTpRGqgVyiGRD5PL9lp61cfsDGTB9glV+vXB4O7OdaHdKOMOyigXA9ZEs02IzEJVTyRxzYBBJs+6CExvoVRwdTyR0RIizfsLriqw/+kog9/Oq5e5m/D9uBCoMCCPbEzfFBLn3gurLMkhAiM2jeFTBoTyOGgywH94KvrGO/KGydau/+UU94UlDhBJPdaaNK9xMAg9c31jbCxARefycGJPKmBHI2aT/BPzqnTxOjmxfTCa/Vb/YFv4XKoGjP5pj/SJnDW5Xk55OGDyHwZGoIMlORoBHiQhqUX4PGLNj7eWbtyvz2zdBdvcV3z2SmUydaNc2e4gGshFFmIJeQGogiAiKxlnM2KCdSKHxas6rIKU8sODIDz7v85gi9tvrj8oF9Y6+Yq5JyxiVnjnThlChNIWNA198wswPwfgzFJcPCS5AUICxX0v/vltbwufMvFw+3KP5hAZ8j5JRouHXSY9ZyJOTPSXtGreBGFWGjnTJRc/fRVLQSOIVhrPN22yGfe9LcNtEP7T9i9/6SrCMYvXAOVSaiPHnE0ZtxPzFzAmv/pRJJRjYHX95oSAV3dUTby2OM3F/7vzat5e//dH5tocy7VIUKtx0Xwsib63kVJQkCtF/TOnj3QPn7r1CL+2Jem2Nlz/HW0HIRrMPCG4ri57tW5uRP9zrt4kF364eHO0Xf4Fzf58xVdUzZgeAcxtFOlQb/ErcXMCdEyc9S1t2RgungnLz0EEX11gqR35BQmTbxDs3/XMXvzguF27vyhtubX+/ymgO4c81CORDGRdEfL1y7KI6suX3zdGLvu5il8bUTgxvacdwzl4Nc/h7dUY0mo3DBymmupSIXqyTMH2HWfG893rO/+x632/BOd2qEZwM1yd8CfQwsBEDTUFAiTdo7SMmMkEhgIshQRV6KIkNfZDpv0IVDIXltz0Pq39bKp57X7TdUR/suhy7bgZ17dBziBhT0rfxd4mTprkN3wuTM5k+/9xib7t1vX28/v2m4H9x+3KecOtGlz2/321AHOnqTK3VA64owAkKPMWthhH/78eD41XPaj3fbI9+MuUY1T4Rc+8GuUEVBcoQQ6/D2nLTNGX3sLd14NkDauhYh2SH7ow50mIo+mEoFZ8PyKPdZ/QKsnscNmLxzOV2HX/Hq/AtLLN4lFXr6hqMk++CeT+YgU9xIfunMr/0oTd4rXr+rkjYSzZ7f7WbSX/fKhPcUHHESvqqn0zTuuG2FX+duzeLt/6Y922X1f38aJWu20SESNfyZOGJkAUBZPzkM1me54xyKPc6hpwkGi1bDWwJHZdg1rVWhi3aG9L5/f+8rL9u1bX+RM+r2PT7JP3fomXeKIFbdlXYl46I8/SzcPnnpgpyxdlusZHlShjJvanx6IhaIlIPmjb7w7jne2L7thFDn84B822T3/7MnD0h7eJT7Jiz+0qVcbciD6l3VI2VXk2v1AGOJ6CnVVSuZdDhX6sNH9MDDKvSif9H/sv7b607Mu+8P/NcNwdp4+b4jffH3VHr5rs+FOcOLAK2PgjQEUUEuc1Imu+d/FYZ/nnWdxJZb7tfgpccF7h9tl14/iQ/6D+07Y7V94tVyuADvjqhZ/F3I2AQ1xY4Kh5yrdT2Qk6GL8uJ8I25ZzRl5zCwC8B3wa+JYiwVLMvuQBDx/Y4wt39tAOL6/3+JluxZIdNmJcPxs3xW+YzhvsyRzmfzx90rZtPOyJDKeops3p4KMCvLSEtxoAnhwWXDXSz8Ttts4P5xX+Sh2jx6Z3n2Z7y6LB9qGbJ9nsS/H3IM1++2u/ffuvNhgel6KAVzRKHZLQVeMXLCJ7K93kJZm3JXaLq8/9sXt6IwKwhkQorCsZhJUtMKGjtPjj5zXISA4A2ODE8v4/nmKTz9EtpK7OE/bkT7fbsnu2l/uJOFHcdNtM7tl7v/ma4VAGyvmXD7d33TiOOP940wv2Cs7EXsZM7mcXvGu4zb1sqN8Y8HvDXvDC0z1f2xw2yU2cOA4gJle3L+2UYcZh5vmHxeU62k4fK8eoBKZtlaCSFOZCYAgmYE3lQoghewZoJMpgDjN70XC76pNn2KgJ1R9VY8a98nynbfAvnrWce+EQEeqxXbVsr2186ZBNmt7mdgP4il2a4D7i/d/cYs8+hrvliM0t1ZkkCBv4I0mUCaWMB85e0k8+6kOjlCCGf98/82701aFjONcAXFv727gEBgA9QQNCYaDNoj6aDARjTUz2MSMvuGKkzXr7UN7Zls/vtu3ce9yee3yfv5ez22ecv8iEj0gRiG2PWeIHPNc1b8MUPii0xRjYo6Rg0b+ugR0NvX7fjB910zmhAMppLNAETBDkAFO6Kp7ceEATqKFHkMou/UkNcqhicOOmDLCpb263sX5XZ+SEfv7yUl/+qVe+QoIH+Xjit2f7Udu+8Qj/KuDllZ229ZX8WzwcdoIELvgDviE+xhd8VIuAS4vcGzW/mjywpBVu0Mf7gWVi5ARpOBNx0jgwzjjZxqVNPSE8c5Gc1g70yQQOXmBLmSOoLbUG0m2b1h3iOkhbOIKdF+odQ+8nQhAyNusDJDO4sChW9uSjM3tiih8SEhQVkryTaw9/6Mg/niYi2c6nPFSSEs4I4rY5aHRSRkwARRAMCLAQecGAq+TCDQnNopZMfat/ricCjZRc7YRMHhTVDkKHpsRGK30oJVfsJGqKn8ZUMSFEkJaLS7zBhLocmMKIYIhDntWYtJPi/1AlCTKQYSphTtAcrVj6VteByBxC4JDJvZ4DyrRkP105DDrpsANCPmOFjbgEca/SvyQx8gA5SpGTCSSaBBqv+HPYSAx0MPGiZcij478fcCzm0yEBm2OBncZGBOp6/v+JHAVJwBoJ0eV6AVE/w6LWFwPHB0RZg5x3EwsyDBF9eKBID3t8/QMB5V4H8deTwSYThjaLuzTYupCxiEmlS3RERBjGlHPdFpKKx+mYuNhOfc02+LfitgzJyaZGFAPE3pE/Bqw9BcOaHOxggy8KnpaHD1/Bhy3E8PcPCGryyEGEZSEJjd26KvBLnvl8mqAwRXi50yGxGS9BXC87xPfxwlmG7FfkAQEdoXwDgOiQd+MSBSsdR2ihuC0Cn3Y/LIaTewd2/B9z3SU50p8bR+AslgY+6QfsLDnT1U+5ZnHD729XwZ+DhlkZT/pkXSFlPEgQM+OmHB4NMWDouMqpW8dRCLF3xJ9xM1Zlo/cDYedf2GCWydaNAOoyKL0XHZdwQFBUReTg4P7+dRMviQoXCkiSTbANWSXE7Pzt7yeCSx415EWWFT6IMh7IS+yVNxATxeOSY6UUl+Be/DV6offgjywBszYDFQmBc7A5QBgGPQUKMNmKUxjQN/3DTHjeyfHEmKo4AaGxRXzkN0FTX2RCwGGtEgyhr/Enj/CBhzfFn7gRJ8lARXVgRdurwl+JFUTalpNIMYQDPiCSH2ZCsjy8M0lgVQ5n2ilgdRgnVso9NP6FLTp5yEgW9tCDJfg04Lo+ZcxIoz7t4SO71Ndw0x/GXvJwzjgeMGISoRbfb9kFlyT3+n8vLFxusWg3FvVBjy0CNgakPQ5jbyQ5yXwb9qrVhQhJhD0xaawNE+EGFfFKjlawaNRHYhEjd45shV+PI/8Kv+h67hyFZURG5ThwIY2GG+uYdhXfwgprqGLd0ABi7fDB9rz2E7VYe0qwRn+GQmK9oWu/N76fKAjFEwcMUnjw5xoGgZfkiDZ3eCawpmvkD/8e166wxe4gpgCADmz0JO8Z3//MgbvcLYqBGwsKxkoLmNdJ0gSBUs9Gz8G4T8hFRLj09Y2sMxJmKuF6xNEsBjfFB6acialemYVQabhoeaGxxvZ6/HGSTI8y/pgwYNjIX1zgkQXuDWsgEoUiMO2NBO659rm2JJ02mFnwDX/I5OMSfxeljpkxIEt7jRU9YMieh3VyilfKsN4iMfRNHVFCVnwTIzDTNuuwYzTIiMnwBZv8054nLGGSo8vB4b8BENHAcf3TBlAAAAAASUVORK5CYII=;" vertex="1" parent="1">
          <mxGeometry x="520" y="320" width="80" height="80" as="geometry" />
        </mxCell>
        <mxCell id="S-3AYEZfy06Mwkrb09BF-8" value="&lt;span style=&quot;font-size: 15px&quot;&gt;&lt;b&gt;AWS VPC&lt;/b&gt;&lt;/span&gt;" style="rounded=0;whiteSpace=wrap;html=1;opacity=0;" vertex="1" parent="1">
          <mxGeometry x="180" y="400" width="120" height="60" as="geometry" />
        </mxCell>
        <mxCell id="S-3AYEZfy06Mwkrb09BF-9" value="" style="rounded=0;whiteSpace=wrap;html=1;strokeWidth=2;dashed=1;fillColor=none;" vertex="1" parent="1">
          <mxGeometry x="-80" y="285" width="230" height="290" as="geometry" />
        </mxCell>
        <mxCell id="S-3AYEZfy06Mwkrb09BF-10" value="" style="rounded=0;whiteSpace=wrap;html=1;strokeWidth=2;dashed=1;fillColor=none;" vertex="1" parent="1">
          <mxGeometry x="-110" y="130" width="405" height="480" as="geometry" />
        </mxCell>
        <mxCell id="S-3AYEZfy06Mwkrb09BF-11" value="" style="shape=image;verticalLabelPosition=bottom;labelBackgroundColor=#ffffff;verticalAlign=top;aspect=fixed;imageAspect=0;image=data:image/png,iVBORw0KGgoAAAANSUhEUgAAAFAAAABQCAYAAACOEfKtAAAAAXNSR0IArs4c6QAAGlhJREFUeAG9nEvPrVlVhfc5VYoWJUJVUVwSEAukpYlN/QMmdoyJiR1tmRhvwQsELwl3MWIQNRgiCR1N7JiYiC0Tf4AtGnY0kZuGoEBhCVoXBcM5jmeMOdZa+zunSEyoek/td60155hjjjnXevfe33cO3Pr8219293Lrcrnc1cCol0dNbb/EzXL5hF1z8HLdBcdE1/Uo7FzlB838lklwgsEWpo4mlid84WGeXI528lu2FNdx84Wn6+QzpzWw5oqm65yHnSl48k+v0PmgZWEA4LvkxagV0nI5oRYV75nWxBljQLAkOC9cJCOW/zw3ZOPSNKKEm/hwg5GSEYDLc4134WVMmHGsdnp7rPHMmXlqTixzsumyAaU0FC0xJyfcsSfP3cvtINIonHfvJADRXCUeHsXJnqwemwDb3TtJ0NgwRURwIzIO09TOmBfkxZE9+Yorp0fHDH7mweGFQ69pwrU9fudjKhwsrn8Bk9eNG9/iJGT6cNv7oGiEQkJOE1tQSGOM3bHjQ1zXnhAMT5UVNzYanEYLpmk2JxzOL1vi7V46sDrOxYV/1Qk3/tHCNAbPvKluImYDGTPp5kQLYaN/sKCCbZ2JI9wz5dQJBJRXxZN6kSMwaMzrWrs1OzGahkgJ2fmFHr4RiHnnZL5PbnnS3BAkfYozqXLeGw+pMNTisEO3DCcfq52T/HkR5oaJZ9U/uYjZL4CJuU3QetYnkQnBaN0rCbFFWARpDtPVSaQI2BsfPIevl3l7YginoHF6PrEuBuGs/fbgqZZ9H6oWlQEGDniZsLYh4505/ds+DRGmOfGlF64q8au2bLJLMy/xF51AxGMlr4YkrS0CLQiAX46zaWOxhfC0RZizxXvw70Kuc6Zp17Zwhz9Co6sNbszmlF9/iIgeRXXDWsOhpQrBGi/sqqONd1w1CMcf4W93Z7X2NQOI/VJwCEmQwKuGCYu/GHwOXxzX8ck0+RpX7CkUm9fJyyNqvYsAXoN2/iyzXrhqu3VZJ/HgNcURt2pf8df6g1czFeMTGJF0N8Z8Eqfb8CJyHXMw7JCfyeCbBwyk9o0gfJkqxsDh9SLzxDMPJk2ZtXAI9qMVYHAh89y6rSsAF8i6egZ72s8cjrIU35wvTMnt/GgzT3WxmO+B+S6VLAjltHdnQ07wqCCe5hmUNPbMzY+KdeyTypIjz+VGiCs2m5bN/gPjHIGM+OZllCOUM4RzxSjHuAXd+lvb2pBSAVYj7q3fxez6mxgiXf4U9kyPB6polJulZQTIJo/nCqKPIzVYB4cs8fIHHE9dLmNIx3/iDJ48tWfTJucR46m1ViPRJDr0YxKwT8WaYzdWbj9Fe534rT86snbN1C948mPni7STQhLDWh/IXUhPVUjBenfncW5COugYcfRTO/xnjso4bYhgnRH+tba+wR5fLXK6YB8fMZ57SMEmpPgb+n2K0vRVt2MrAg78GOFvjszxPQiEKzmS3MJjlp3o2HPsu2bcROxmTnU55BtA7IbrNgVqdpv58Ictvgdf/8OXh3/so5cHHn1Tg17w8c5XPnX537/92cvdL/zdVa7UHxPqUtPMVNjts0HA2uWO2Pp+cafFrnHqB+TGZDcTi490JMsueqkV9pycfSJk9oXvxW4eiW+/4vsu3/YjH8unvGSjvPp7yv2g+fTLq+bhf5BHzDVig2nfsjAZdCztZJIMXcqSZEAwBk9iLnzbXpscCyubmxpbT95T73upGJrbTItnSZG/TwY2sx8jUegpvmOAo1PGh972NTcxDLLjAuypbp4zwhc7o94DdQHWQjVoPkGaUzh/tk+2+WWDfcaDE2KSwRSejJ6bG0JsBE1bZp4AuwlfF28LiT/iGm8uoNHtzYJ61sCicfLZhw3M8M18GeOS0//ZHDw5At7x4cj3QALsoTCAbrPuNDMCy22Tm4gXXF797ghNTpvsNJULSngWloQ4xq/xFIaHKzyCTnxjWszODwYQPGTZvDvH8AjVt6L4iiVjMbKJrjyWai/YrZX6HkQdh24lcqETgt1E8gpskazDb5+1WnQ5empSSJO7l1qwQWlMcJMipFAcl3uiNbHOjxjnbxFljz+ho5M4vcjH7CrnFEDd6/eJCfa9eVNgeFI/7ujPRum9MxJIJZcW3ckYyBCakAZXo22+SbTjJfdb8vtEZ59bmnWdP67kZL4xV/pp3BRwHT913KxXTMGF03Wq2diu7TunvkhPh0jka5OzbGAbFLGsNIN8BCLUVugmYUasybG4xu+jJW/txi0dOOqjCDYHg/5jkzS6OYN3ftmwOi8QsLYF3+aaq3bwhJ3XYXBO17m5wpP8/h64DD7ac+in8+VNs9bKBbkKmVY+x3DEpzjUD08foTKsnG5Ac0J29/Lkux5ubwsX6ixU+Cb1hs3iZv6Jxpv88GOEKzForRY8mP1og3GSbH7qT4zjR4C+BxIVUPCZmwsDorTwGy8TvRYxcbpMPr6eBC+5zUUMdP3JpKfHhVCFLue3FoB7jd3fwRaXJhMD7mzuyu943VrbfKJjIWcaSpNA5MuI6d1Rg0ZPdKzf4pgXJJonEtIkokgYS6zRjwuyUmQDiWgjE5NEbcLJQ5HEvfYDT19e87v/xcKmYl/1/qcvr3r/M7EPFt/j73v28sr3xu7ssj367mcvj73nORMkPnkfeed/X17xjudGU2zkrMboJoWY+KAUV30Znd52x9FkmZpjnWBbccSXEzgLDbKSIE6vselqsn0SR0i/qw14xTDpy4WYxreIQl7yeHI1V4E1Mk7Bp6nzNKIrRnjDHZLmESM86F3wNngZollL855mB937+8Q5u0qiU9dT1mZZCHknuCP2vWsVPCP4+Z5IfkLBltuaOOF+JhVjbluDcTy32LhnqphtWpoOk6dgTv1uhIx5Dysa/XvuOrt0PIujnsHeW7+/B45AvIrhLcA3rXOIQ5XgNCLvIS1MfoV2XxEKx25w+K7WNM8ghO7LjcaOhrNdB/9C25bVfrwS5ma5HhMZVP2tzTnEwTVDFklOAcvO5ld/a+uG3PrkLzxyFyNXRtG1hpu2pUeNFLgtbnxy4yMQxgzf+YM/cXn5j3/w8sBLH43xBbzfee7fL8/9zVsvX//Hv1SW6GyLts6xu8mp+2W/+T9W9fTvvcRjsR0XF6dFF3aa6kc4uxODSxZm2QT2fGyx9xFIpxbWk/GRJ7letOZR2O2HHrs89KN/MLmpcvRPHT5J6z2Vs9VaiObKzq+aZMnpy4FZdmpTF69+H3j1KEDs7KUMcRT5frldk5OEUHcml9f9/lczPe7/+uvfbc7kmZO6/FnXN3XIW/sCZvdlv+3jMbs0Wh57z7Nu4iPv0if1cX3l/Q+ZctB0xQ2YPd9IA0Sm/9JsYEPOByw9mTsr/a2c1+vmTylh2rw4skvn7uUIT5JdrXVlxxblmvSH+LWj5IkeYZBDHmUee3Gxbyz2vi/t+JXmvhNwyV+e65oa5NxUn8mYD6w1okh6xZkTyJFmpcsORpZueDzZbBmw6drCxya8XXP73NtebhzL132op9FOWTSW3yj4Jv9xqqrFDVv2cBh+2mQoO5RPvfelTkNlvpaTydjiuc99Mk9M8gMryWLlPZDuZkfLizhSYGceDGMLJYaFTTPWpiSym4P4BQq+J35xD9aPyfCVOxzkiMbwAtIas4HkS+CE45FJmfsdddaLx3wNG92O4pZ1clP/5BvySRW7bOt7YIAlJWPIIOwVDn2ZHFK/GeGXYyVyYGJyzHe8eYDP98TsM36JHhvUec+R3SdMbhL7KSmWhLCx5rrZhNj63mW5vH9NTGvd+U3iG745f+bdORTu+L4VRIt+pZ/gJhuW1YaeoJyQrDJHTx4bv7e2mOPtwKbhhzeFpC82c0OHRYPwYoSmkIb3aXXOWcCXCEKZ7at1YcGFZqsnhrmJy77j5JUv9lEDg2Nc8cTTIOp2A0lwErpBIAgdJ6ttD3VJsmOS5xAVrpg3/OFXHH99mzjKFtic3IVPcZqz9HMBVnOw8Xpm1XYcHIGswnG/8r3PMqwr74kDHCv5kx57Lp9AasYx2Zl6ddhtkXEeYdcgEIHZAQL84tFyoNbu0PaDdUEAHXuOzK+vMx4PjXZOxdOo0pBmv7CSJzbi6tu6sHKh//4Xuf3jIzzUpDGbczOG+uzeeaB0ft3QCRdTXfoUjiFLcDlBph0UQ3q4k5UAexoDxgtyXf7lV18xlHcvb/ijez+FExMVo8VJsEPj4iZxBnIv5M4pZFRXY9J++d0PL3z5jujVAMKrn8hJmfyhctY8faVks8OmvxNJ4Uu4np+TcDUFvJJ9xxt/6PL4T3/48u2Pv3Hor4d//pVHRkWE3br6th1sN6krn0QaJ0PnXljboKjMVxrWgjaXZoWA05xl+TI3QZpkXQGVC6+fhEWUw0SAe2KBoMaumR/h4OfoTjAJoVvNJFjXN2se/iQKl8X40xVPr6ViuCeHzKTeWrTQ0fHaYnYcTJg2FssIZKoL39kMe2VrjBts3toaF2Nxqf/MrTkflObyX6wrULb5GXnt2iiI04LyaPXkffqX+ouB2J1eJH70tPjeD9//Q4SvQC5m7t3Z2KStGae48KbJeYeII6cmp47YE07M47+dX8Q6Xrcvv0t/SS8g+c4Tl0YVxXgosZisHSfftd6r32UTu8GhTABJspuxcr9OrDjFtnlOsqFrlhhyjBB7ssbml3L1OyFuatjisSTX8/4+Ech9L+W0nTzVn7kNc2u+6kGz61d9iQeI/gTka4zmdbI70KYJWJuwiASuu8z2OIvQwHX77Fv0IeLF3csTcxpXIxSBq4ycft7LuJwfXxXGuNfw3/h9YvIDLOPl8qV38CGSyzLGx18TPN/1jac+bQo0OH8CDY8c8Vs4o8wa1k8iJQUY8O5ybETw6iW/3t/6QMaXmMaToKeSqPPRwWOcML74VmrbfsOOSzh5PHdhOydFFhOSa33Ydg/2ExLs9Z3mPfPXP5dcSTabdl2Te+HQ2NfXmHbdDSYxJJPdJ0faIjaJa2MFqeM0cZOmsHIlIjjmyeWJXeXKiLC9LezZaU98c87TohPJpz24XuUIE7oS8+Q7eS+k0YhuifgnLzh5QSRo1thND6OwxvAeaOORnJNgmxAa815jtvVBw8oYnxqvhtxpY5gkR02yjx9evU50cLUw5mX7aNqnubjwgN06Jz02XtcClgZKNB8T8e/8m9v1r3jQ1UUMgf1RjtkcFz8U4OzPznipgIQA5hpxMuZHr1hdiALe9JGnYjjuORUUJl69eURDckzCZYMfG7J8OohSwD4puzk+UMbvZK/+naf3QrO+J7rMgwdQ4gO/2XDypX7URA+6o4MGJs76txCsKC8pS9MUPePY2EH94Uq6cd8cOEknp/1jQxTrfctC9nLvSgUaiabQ7Wbhte8R4h3kzVs1wafmAE4TEmYDG4c9pkww5JpfqGoRjtWnJRqXfdn9iQupBJ0nwsbhyffEJHrTR/6jYYIcMVgRZlhO1Ox3TNzlx+Y4oJh8esPdcHTYCaeuL/zWd2VCPCC0+j75WZts4hjkN1QzN20MZ/2nflglhRAEsqyG2HqaltTBBMk96RIfZ3msZriLL8//9/eJi3NS9nti9I1+/8RTPQNM59IZPyXFSonFFP889U98minsxPS0k98/C/u0mYvbdN/oJIhLScLgfkCanfHSJzEzKIIctmUmHA05Lc7kFvNkr8043g7ijKcnHQLnJcRkjDldi8MmbGjO5V5ogTLnZwYXWCDTLKZtEHMuXM4PkhgZiGVx4x8XhRSXYBkQATgRY2OIvWZGEid5Y5NsB9U+IzF2Zl2OlXveM3f6I975FGwBadR14cFeP0XgZXfSjA5HA3z+KwCczYPjrPO0h8bvgQkJId1GiDcEUv1Zuw9fL/nWrsjmOCUjBfFv/ujzfAp79wjmv+Q0ZROaARJI4Sq3iZcW4Mmv8YYW+F77gfwjJuZcvCeacjixEe8KJ4csmFO/ZyOjmqtlRuLXh8gmx0s0u2qrqc5mYVgnreRGWc4IG8PVEIGYuvPU0JPjguSIlux8w5N/rSYGJDnngux5L3wLuXO62OYEIgw86Drw59uBPUM1v9IPObacini9hkiTdSorsGLlc3ECOe/8PvGTP/+YBeN74oP/dHng4Ufv+92wdN/K8RvPPnX54vuesPD9HTU1uTNqjDfLCjtXu6YWT3yAdm1Er5LBze8T/SlMoIk1dm4ySOzDS5N5zbWw1zE9TQkjXv/i9C9+4/KNZ+59pEv1rRxp3lc//nbnpWLrt5hr/ZhSW2tMbafNpy6GVL5qFnbmOoHaAcimitVl1hjNm0YkxQAnyvxy+GfnhkCCY2Kf+cTHL09/4q8ub/6TNPFTv/jo2k2S9HviZ/QbHEQ7XPb+Fid/PZCT8j3zl1Wfeyt/ZYDA5Hn9h/7Twv7tPU+EG1cvN5J4ZMWREzinTrjCwSDcj2+Ns258Ty/I9T2QIP5wTQ7PYXZSRMTie4QEv8zJvkRaiMjSy2vsVY4h2PnJtPHB9qQE3EYEt7HWe3wnhAks3OWhk/nZWXFHUc6vtX2HPdPWn1zlyvdAbEYlkbULke9nae0WnALSnMxXuJbsjtfOAGkT3lAU81UBhHgPuEVhk83y4JCnq57+gJXf4fUigebNmrzf5PeJPl3Wlo1HP0ufSFOFKzadwNA6AreBSSabnN2VNReq1xLlFLGiM1pJdNqao4XLf/X7RLCJaXyidR+e89Eptr5i0WRdkR/OUriR0EWLsQ6stnvzsxm56MSQWk+wt/7+p15Nyuy8ZhEphLAJhuHO2C+X7//TL5nvH37mcY/BJG7xyOO8w4FQ42zcOba45to+yFfMVXyxSWLK0Z/8WCbfcJx2maaujOSwPj5Vm0fxrn+BN1+4kwPM1T8ydxRBLp8O86LdBFxfmNeOaBacMOubPnP9x+PiS2im9Xc+Xqe5yiNO4A23b3TIlvwTvHDVyZiX4yen9TqkuPIr16FzxZ51rVSJRRZ8+RT2VseURqjj+iP6cGm+GjRE+GszpbeSiImBTvPzPdEZBHbxwjseuD7KerkQCNVtN1zzJ/44f8P32V/Op7RPlGLS3OQgF1dtEY5PM3LxR07Pj5EYMMETHx4scOaJ3HawJ898CmPcIMhMY+Y2ylnCa2rhz3HlLU5jlJm7AvcI1WB90qMhNm0Ppwb/4iXZ4JnKnle0uu6FLY740W/faRfJcdGUNK8Ysmd+bccGp6g1eu9ZFGwnxAB4k5/EIdkZbbcvWIcc6whqPCPOvRksT5vzT7x90GriMMjn2jEyHPlaVN8iys/J2z6F+CvOwW0dQvhoJYlzjj359yas/EDlvDqBTbSaOSfIGky4dyepshuNG04NsZeHEmzzpE0c2/gizJpsSXPKf5jE/UL+PpGG5bFV7qv6pXvq2t8T/R4YccWyajGETM1DGqzvcuCjRKOYdOWgemNFjHFSuN+HdsP6XgMLO9voUWAzRtsR63lKypNtAbIv1ZWTsslPd/TfhA9Z8iWauzKSRCMHwFOtiGGBnmgNbn2IlNxv3kZDMsW3IJF87Yufvbzk1U9cfuDP8nUmqBf+/vUnPzNqKGlV4yc2J/0ofFUrnD6Jph+7C8S3JrzCG9UG+42NHGRKrmZ1QjvCkUcYDv1xIkZN9mtCsen94/Mf+zU30ewv0o3mPfnnb5GmaGFkhuq+53leG2MArqPLMx6bnwRzHPWnL/ev/+CMFHXtEz/5GpnnWNJszyFnziW3FlmCqzXzrrFmDp45wGRkyouyu6PJg4PIzVv74sI98Z4OHmamC2eMblTmOWiu6swpC37bDdHNdgiLN3u4sDZP412L8DmssuYIk/v6BFqNeLrrCLfGyeidcDJSO1UmjrHB+PW/tyXeMKv1ojlj5t8nyrzihWM+3whqX1sasmCYo8s2DYBd2/zDcOx69SS6NoekZnzVYii3uVy/Y4NNfn+NmWAaJ3DJyc3V0ckMSOEpBMOOjziidpLGN6FpzbO5g0lM8ssHjXky0/S4io2pWMQ6nqbJ6GbwtUUfLMkPHqLWQCRYgx2ztWALT8TsOFiIBKsf5Uh6WIYcUFAZU1iSAa8Q280xPPbtBFluIdc/MkWE+UaDtaAhSY48YepJvIdX+PAkFp5FIXD1+ysQDj66+cT2XySxDuOKMab20c/StYKloTzCEHmR0Yn5uXDs5fFuOqS4ptrx3eU0wWALs/h5lJqrBQ0qgzBc8TGbDVMq529KY/D3Upxid36Ao0vT6GkTYj9zLCwx4P1lG5yX1rPzy04t/tmZ74GKiDPqqCGfThNtGgV0i+BdHfIivXb4fEgMxnsg+E1+wp0jKV3qTG1POBZerEhZsNYmsNkQe8bmPeCmNWq4uCd8asUDxF75NWl96Ep4vRBkIw2HjOYNwfpJJGmyS0k2CQje9Bbi/78tyaKopIlQOIw1QRTSPIPI2fkIX03BvmyCmzRaMLNeOVkbKz8fLCsWjsQ0HuCZM98MHLywQyaixqsCCEa2OYV2Tjdy5wTnT+EcWTmceYQTMa8Kwp85WIQgD7wXGRGi5bbVfxRnf+It0PGTd9KOYudYOfEtrEio2baO6Gj+sdU/OcPVXBB0fnITNC/Hh/d+9c+/DxT+eO6jLOqaUDxKNYpZzGX/iEscjgpDXJIXnzGi9+koTt7ZAOPg9XsNK6Ghqr9zA2VmfaVPnMBtr2/0y4b9rOY6PvpB2D45d/07cv/TDnLoIiCd3qcNOPb+EJ9kG7ulJKGbJnyyw1p75/NeJCJzgaUcCXVurbC3+Qhn3l46Zmx9emDg6qeqmLWIbefHFi1+CztyFNm8HbH3M2HXD3F4/HciLC2Kia+9AywjmNnu/CmumBQcnKlQOYVexWKT5+p1lTscfqMGFzKMug4NnU9TNo7TOjUodum3LSzY8hot5HCeM4c4zA34pj08+RqDc94gLRC8Xz2F6TYkEXMkVSi283hr6YR+k/eCeE8mfnhiMtYhxxo8IRM28eWJnnDG5vwT7zjruqF/bKg175Fv22ha8lqDO7fxPfHV93/fXm0bjLhKEQAAAABJRU5ErkJggg==;" vertex="1" parent="1">
          <mxGeometry x="60" y="170" width="80" height="80" as="geometry" />
        </mxCell>
        <mxCell id="S-3AYEZfy06Mwkrb09BF-12" value="&lt;span style=&quot;font-size: 15px&quot;&gt;&lt;b&gt;BASION HOST&lt;/b&gt;&lt;/span&gt;" style="rounded=0;whiteSpace=wrap;html=1;opacity=0;" vertex="1" parent="1">
          <mxGeometry x="-70" y="180" width="120" height="60" as="geometry" />
        </mxCell>
        <mxCell id="S-3AYEZfy06Mwkrb09BF-13" value="" style="rounded=0;whiteSpace=wrap;html=1;strokeWidth=2;dashed=1;fillColor=none;" vertex="1" parent="1">
          <mxGeometry x="-80" y="160" width="230" height="110" as="geometry" />
        </mxCell>
        <mxCell id="S-3AYEZfy06Mwkrb09BF-14" value="&lt;span style=&quot;font-size: 15px&quot;&gt;&lt;b&gt;GATEWAY&lt;/b&gt;&lt;/span&gt;" style="rounded=0;whiteSpace=wrap;html=1;opacity=0;" vertex="1" parent="1">
          <mxGeometry x="500" y="400" width="120" height="60" as="geometry" />
        </mxCell>
        <mxCell id="S-3AYEZfy06Mwkrb09BF-15" value="&lt;span style=&quot;font-size: 15px&quot;&gt;&lt;b&gt;ROUTE TABLE&lt;/b&gt;&lt;/span&gt;" style="rounded=0;whiteSpace=wrap;html=1;opacity=0;" vertex="1" parent="1">
          <mxGeometry x="340" y="320" width="120" height="60" as="geometry" />
        </mxCell>
        <mxCell id="S-3AYEZfy06Mwkrb09BF-17" value="" style="endArrow=classic;startArrow=classic;html=1;strokeWidth=3;" edge="1" parent="1">
          <mxGeometry width="50" height="50" relative="1" as="geometry">
            <mxPoint x="310" y="380" as="sourcePoint" />
            <mxPoint x="490" y="380" as="targetPoint" />
          </mxGeometry>
        </mxCell>
        <mxCell id="S-3AYEZfy06Mwkrb09BF-18" value="" style="rounded=0;whiteSpace=wrap;html=1;strokeWidth=4;dashed=1;strokeColor=#82b366;fillColor=none;" vertex="1" parent="1">
          <mxGeometry x="-150" y="110" width="765" height="520" as="geometry" />
        </mxCell>
      </root>
    </mxGraphModel>
  </diagram>
</mxfile>
